<svg width="424" height="217" viewBox="0 0 424 217" fill="none" xmlns="http://www.w3.org/2000/svg">
<path d="M0 82.6133C0 39.5468 0 18.0135 14.0188 6.86387C28.0375 -4.28579 49.0183 0.560654 90.98 10.2535L381.108 77.2715C401.353 81.9478 411.475 84.286 417.393 91.7277C423.312 99.1694 423.312 109.558 423.312 130.335V162.523C423.312 188.197 423.312 201.033 415.336 209.009C407.361 216.985 394.524 216.985 368.851 216.985H54.4612C28.7879 216.985 15.9513 216.985 7.97566 209.009C0 201.033 0 188.197 0 162.523V82.6133Z" fill="url(#paint0_linear_1322_2141)"/>
<defs>
<linearGradient id="paint0_linear_1322_2141" x1="0" y1="158.81" x2="438.341" y2="158.81" gradientUnits="userSpaceOnUse">
<stop offset="1" stop-color="#D24545"/>
</linearGradient>
</defs>
</svg>
