<?xml version="1.0" encoding="UTF-8"?>
<!DOCTYPE svg PUBLIC "-//W3C//DTD SVG 1.1//EN" "http://www.w3.org/Graphics/SVG/1.1/DTD/svg11.dtd">
<svg xmlns="http://www.w3.org/2000/svg" version="1.1" width="612px" height="428px" style="shape-rendering:geometricPrecision; text-rendering:geometricPrecision; image-rendering:optimizeQuality; fill-rule:evenodd; clip-rule:evenodd" xmlns:xlink="http://www.w3.org/1999/xlink">
<g><path style="opacity:1" fill="#fefefe" d="M -0.5,-0.5 C 203.5,-0.5 407.5,-0.5 611.5,-0.5C 611.5,142.167 611.5,284.833 611.5,427.5C 407.5,427.5 203.5,427.5 -0.5,427.5C -0.5,284.833 -0.5,142.167 -0.5,-0.5 Z"/></g>
<g><path style="opacity:1" fill="#ce3c3d" d="M 236.5,92.5 C 236.007,94.8056 235.674,97.139 235.5,99.5C 234.89,100.391 234.557,101.391 234.5,102.5C 230.946,110.056 225.612,116.056 218.5,120.5C 217.508,120.328 216.842,120.662 216.5,121.5C 214.784,121.629 213.117,121.962 211.5,122.5C 205.531,123.793 199.531,123.793 193.5,122.5C 192.15,117.439 190.483,112.439 188.5,107.5C 187.667,107.167 186.833,106.833 186,106.5C 182.499,107.234 178.999,107.9 175.5,108.5C 166.878,91.8708 169.211,77.0375 182.5,64C 194.57,56.5055 207.237,55.5055 220.5,61C 231.715,68.4144 237.048,78.9144 236.5,92.5 Z"/></g>
<g><path style="opacity:1" fill="#faf7f6" d="M 180.5,81.5 C 196.499,84.1664 212.499,86.8331 228.5,89.5C 228.384,92.8599 228.051,96.1933 227.5,99.5C 211.453,97.4941 195.453,95.1608 179.5,92.5C 179.942,88.8455 180.276,85.1788 180.5,81.5 Z"/></g>
<g><path style="opacity:1" fill="#838383" d="M 506.5,151.5 C 506.167,151.5 505.833,151.5 505.5,151.5C 503.833,151.5 502.167,151.5 500.5,151.5C 493.825,151.666 487.158,151.5 480.5,151C 471.752,141.249 462.586,131.749 453,122.5C 452.167,108.155 452.334,93.8217 453.5,79.5C 463.014,70.1525 472.348,60.6525 481.5,51C 495.833,50.3333 510.167,50.3333 524.5,51C 533.873,60.1449 543.039,69.6449 552,79.5C 552.667,93.8333 552.667,108.167 552,122.5C 542.473,132.027 532.973,141.527 523.5,151C 517.843,151.499 512.176,151.666 506.5,151.5 Z"/></g>
<g><path style="opacity:1" fill="#383837" d="M 130.5,141.5 C 129.778,141.918 129.278,142.584 129,143.5C 126.02,143.415 123.02,143.081 120,142.5C 119.683,144.301 119.016,144.634 118,143.5C 116.333,144.833 114.667,146.167 113,147.5C 111.384,146.199 109.884,146.199 108.5,147.5C 106.61,147.703 105.11,147.037 104,145.5C 97.7698,123.181 91.6031,100.848 85.5,78.5C 85.6667,77.5 85.8333,76.5 86,75.5C 87.9874,74.782 89.8208,73.782 91.5,72.5C 90.8333,70.8333 90.1667,69.1667 89.5,67.5C 95.4603,64.4409 101.794,62.7742 108.5,62.5C 108.421,63.9305 108.754,65.2638 109.5,66.5C 112.027,67.2136 114.527,67.8803 117,68.5C 123.58,91.3222 130.08,114.156 136.5,137C 135.027,139.233 133.027,140.733 130.5,141.5 Z"/></g>
<g><path style="opacity:1" fill="#f3dd31" d="M 106.5,98.5 C 111.737,97.8352 115.903,99.5018 119,103.5C 119.622,112.544 115.456,116.378 106.5,115C 99.8927,109.515 99.8927,104.015 106.5,98.5 Z"/></g>
<g><path style="opacity:1" fill="#ea4242" d="M 100.5,76.5 C 104.741,76.1846 108.574,77.1846 112,79.5C 114.072,89.3364 110.238,93.8364 100.5,93C 95.9315,90.4586 94.4315,86.6253 96,81.5C 97.025,79.313 98.525,77.6464 100.5,76.5 Z"/></g>
<g><path style="opacity:1" fill="#32240d" d="M 288.5,119.5 C 283.194,125.473 277.527,131.14 271.5,136.5C 276.454,130.539 281.454,124.539 286.5,118.5C 274.613,107.625 262.78,96.6254 251,85.5C 245.944,91.6265 240.444,97.2932 234.5,102.5C 234.557,101.391 234.89,100.391 235.5,99.5C 240.45,94.2132 245.45,88.8799 250.5,83.5C 261.018,93.1855 271.685,102.686 282.5,112C 285.118,114.106 287.118,116.606 288.5,119.5 Z"/></g>
<g><path style="opacity:1" fill="#f4d02b" d="M 289.5,114.5 C 289.784,116.415 289.451,118.081 288.5,119.5C 287.118,116.606 285.118,114.106 282.5,112C 271.685,102.686 261.018,93.1855 250.5,83.5C 245.45,88.8799 240.45,94.2132 235.5,99.5C 235.674,97.139 236.007,94.8056 236.5,92.5C 241.117,87.5464 245.784,82.5464 250.5,77.5C 263.823,89.4895 276.823,101.823 289.5,114.5 Z"/></g>
<g><path style="opacity:1" fill="#0f76e5" d="M 378.5,112.5 C 370.212,118.651 361.545,124.317 352.5,129.5C 348.802,129.448 345.135,129.114 341.5,128.5C 332.588,125.255 326.255,119.255 322.5,110.5C 318.161,87.8799 327.161,74.5466 349.5,70.5C 365.327,70.844 375.494,78.5107 380,93.5C 380.769,99.9433 380.269,106.277 378.5,112.5 Z"/></g>
<g><path style="opacity:1" fill="#f2f8f9" d="M 329.5,91.5 C 340.121,94.1553 350.788,96.822 361.5,99.5C 362.741,98.9628 363.908,98.2961 365,97.5C 367.645,100.145 370.312,102.812 373,105.5C 373.483,106.448 373.649,107.448 373.5,108.5C 369.214,109.707 364.88,110.707 360.5,111.5C 360.5,110.5 360.5,109.5 360.5,108.5C 349.807,105.714 339.14,102.714 328.5,99.5C 328.167,98.8333 327.833,98.1667 327.5,97.5C 328.178,95.484 328.844,93.484 329.5,91.5 Z"/></g>
<g><path style="opacity:1" fill="#60adf7" d="M 193.5,122.5 C 197.546,134.086 201.213,145.752 204.5,157.5C 203.116,159.703 201.449,161.703 199.5,163.5C 187.625,167.259 175.958,171.259 164.5,175.5C 162.856,175.19 161.856,174.19 161.5,172.5C 163.001,170.579 164.835,168.913 167,167.5C 167.561,168.022 168.228,168.355 169,168.5C 175.377,166.228 181.877,164.394 188.5,163C 192.477,160.863 196.477,159.029 200.5,157.5C 196.121,142.239 191.121,127.239 185.5,112.5C 183.926,111.369 182.259,111.202 180.5,112C 166.982,116.538 153.649,121.372 140.5,126.5C 143.758,136.842 147.424,147.009 151.5,157C 151.43,157.765 151.097,158.265 150.5,158.5C 148.806,157.473 147.473,156.139 146.5,154.5C 143.107,145.156 139.607,135.823 136,126.5C 135.219,125.056 135.386,123.723 136.5,122.5C 149.966,118.576 162.966,113.909 175.5,108.5C 178.999,107.9 182.499,107.234 186,106.5C 186.833,106.833 187.667,107.167 188.5,107.5C 190.483,112.439 192.15,117.439 193.5,122.5 Z"/></g>
<g><path style="opacity:1" fill="#fafbfa" d="M 193.5,122.5 C 199.531,123.793 205.531,123.793 211.5,122.5C 221.152,132.15 231.152,141.484 241.5,150.5C 233.447,150.225 225.447,150.725 217.5,152C 213.104,153.87 208.771,155.703 204.5,157.5C 201.213,145.752 197.546,134.086 193.5,122.5 Z"/></g>
<g><path style="opacity:1" fill="#2bb739" d="M 114.5,119.5 C 126.271,121.118 128.604,126.784 121.5,136.5C 111.537,139.193 107.203,135.527 108.5,125.5C 110.08,122.939 112.08,120.939 114.5,119.5 Z"/></g>
<g><path style="opacity:1" fill="#0f77e6" d="M 161.5,172.5 C 157.101,168.432 153.435,163.765 150.5,158.5C 151.097,158.265 151.43,157.765 151.5,157C 147.424,147.009 143.758,136.842 140.5,126.5C 153.649,121.372 166.982,116.538 180.5,112C 182.259,111.202 183.926,111.369 185.5,112.5C 191.121,127.239 196.121,142.239 200.5,157.5C 196.477,159.029 192.477,160.863 188.5,163C 181.877,164.394 175.377,166.228 169,168.5C 168.228,168.355 167.561,168.022 167,167.5C 164.835,168.913 163.001,170.579 161.5,172.5 Z"/></g>
<g><path style="opacity:1" fill="#f7ce1a" d="M 271.5,136.5 C 267.766,139.231 264.766,142.564 262.5,146.5C 260.5,146.5 259.5,147.5 259.5,149.5C 259.167,149.5 258.833,149.5 258.5,149.5C 255.167,149.5 251.833,149.5 248.5,149.5C 240.327,141.163 231.661,133.329 222.5,126C 220.536,124.549 219.203,122.716 218.5,120.5C 225.612,116.056 230.946,110.056 234.5,102.5C 240.444,97.2932 245.944,91.6265 251,85.5C 262.78,96.6254 274.613,107.625 286.5,118.5C 281.454,124.539 276.454,130.539 271.5,136.5 Z"/></g>
<g><path style="opacity:1" fill="#181109" d="M 239.5,113.5 C 241.414,116.684 242.08,120.351 241.5,124.5C 243.604,124.201 245.604,124.534 247.5,125.5C 244.914,126.48 242.247,126.813 239.5,126.5C 239.5,122.167 239.5,117.833 239.5,113.5 Z"/></g>
<g><path style="opacity:1" fill="#23180f" d="M 250.5,112.5 C 257.745,111.963 260.578,115.296 259,122.5C 256.177,127.395 252.843,127.729 249,123.5C 246.771,119.429 247.271,115.762 250.5,112.5 Z"/></g>
<g><path style="opacity:1" fill="#e0c217" d="M 251.5,114.5 C 256.49,114.78 258.324,117.447 257,122.5C 255,125.167 253,125.167 251,122.5C 250.278,119.739 250.445,117.073 251.5,114.5 Z"/></g>
<g><path style="opacity:1" fill="#261d11" d="M 229.5,113.5 C 232.044,113.104 234.211,113.771 236,115.5C 236.688,116.332 236.521,116.998 235.5,117.5C 234.15,116.05 232.484,115.383 230.5,115.5C 230.351,116.552 230.517,117.552 231,118.5C 232.816,119.329 234.649,120.163 236.5,121C 238.382,124.976 237.048,127.142 232.5,127.5C 229.646,127.451 228.479,126.118 229,123.5C 230.444,125.155 232.278,125.822 234.5,125.5C 234.5,124.167 234.5,122.833 234.5,121.5C 227.677,121.713 226.01,119.046 229.5,113.5 Z"/></g>
<g><path style="opacity:1" fill="#20180b" d="M 266.5,111.5 C 267.5,111.5 268.5,111.5 269.5,111.5C 271.019,121.059 272.352,121.392 273.5,112.5C 274.359,111.226 275.026,111.392 275.5,113C 275.004,116.995 274.004,120.828 272.5,124.5C 272.167,124.333 271.833,124.167 271.5,124C 270.108,121.276 268.942,118.443 268,115.5C 266.957,118.757 266.457,122.09 266.5,125.5C 265.5,125.5 264.5,125.5 263.5,125.5C 262.518,121.523 261.518,117.523 260.5,113.5C 261.274,112.289 262.107,112.289 263,113.5C 264.848,122.219 266.014,121.552 266.5,111.5 Z"/></g>
<g><path style="opacity:1" fill="#f3cf28" d="M 288.5,119.5 C 287.698,122.574 286.698,125.574 285.5,128.5C 278.825,135.175 272.492,142.175 266.5,149.5C 264.801,149.66 263.134,149.494 261.5,149C 262.252,148.329 262.586,147.496 262.5,146.5C 266.234,143.769 269.234,140.436 271.5,136.5C 277.527,131.14 283.194,125.473 288.5,119.5 Z"/></g>
<g><path style="opacity:1" fill="#362b0f" d="M 218.5,120.5 C 219.203,122.716 220.536,124.549 222.5,126C 231.661,133.329 240.327,141.163 248.5,149.5C 247.508,149.328 246.842,149.662 246.5,150.5C 245.5,150.5 244.5,150.5 243.5,150.5C 243.918,149.778 244.584,149.278 245.5,149C 235.635,139.967 225.969,130.8 216.5,121.5C 216.842,120.662 217.508,120.328 218.5,120.5 Z"/></g>
<g><path style="opacity:1" fill="#e3dee2" d="M 341.5,128.5 C 345.135,129.114 348.802,129.448 352.5,129.5C 350.882,131.316 348.882,132.649 346.5,133.5C 344.605,132.027 342.939,130.36 341.5,128.5 Z"/></g>
<g><path style="opacity:1" fill="#ce3f40" d="M 322.5,110.5 C 326.255,119.255 332.588,125.255 341.5,128.5C 342.939,130.36 344.605,132.027 346.5,133.5C 345.194,134.467 344.527,135.801 344.5,137.5C 327.874,140.717 311.541,144.717 295.5,149.5C 290.167,149.5 284.833,149.5 279.5,149.5C 281.173,142.464 283.173,135.464 285.5,128.5C 286.698,125.574 287.698,122.574 288.5,119.5C 289.451,118.081 289.784,116.415 289.5,114.5C 292.506,107.793 295.006,100.793 297,93.5C 297.523,91.7774 298.523,90.444 300,89.5C 307.508,96.5427 315.008,103.543 322.5,110.5 Z"/></g>
<g><path style="opacity:1" fill="#f7f4f4" d="M 301.5,101.5 C 302.239,101.369 302.906,101.536 303.5,102C 313.294,111.526 322.961,121.026 332.5,130.5C 330.887,131.427 329.221,132.261 327.5,133C 316.623,134.908 305.957,137.574 295.5,141C 293.421,141.808 291.421,141.641 289.5,140.5C 293.512,127.465 297.512,114.465 301.5,101.5 Z"/></g>
<g><path style="opacity:1" fill="#111010" d="M 307.5,129.5 C 311.138,128.737 312.638,130.07 312,133.5C 308.331,135.009 306.831,133.676 307.5,129.5 Z"/></g>
<g><path style="opacity:1" fill="#0f100f" d="M 303.5,105.5 C 305.411,105.574 306.578,106.574 307,108.5C 308.269,114.111 309.102,119.778 309.5,125.5C 308.5,125.5 307.5,125.5 306.5,125.5C 305.17,120.18 303.837,114.846 302.5,109.5C 302.623,108.075 302.957,106.742 303.5,105.5 Z"/></g>
<g><path style="opacity:1" fill="#f2d02a" d="M 216.5,121.5 C 225.969,130.8 235.635,139.967 245.5,149C 244.584,149.278 243.918,149.778 243.5,150.5C 242.833,150.5 242.167,150.5 241.5,150.5C 231.152,141.484 221.152,132.15 211.5,122.5C 213.117,121.962 214.784,121.629 216.5,121.5 Z"/></g>
<g><path style="opacity:1" fill="#32240f" d="M 271.5,136.5 C 269.234,140.436 266.234,143.769 262.5,146.5C 264.766,142.564 267.766,139.231 271.5,136.5 Z"/></g>
<g><path style="opacity:1" fill="#eef6f8" d="M 167.5,124.5 C 177.935,123.435 182.435,128.102 181,138.5C 180.215,140.286 179.049,141.786 177.5,143C 173.693,144.881 169.693,146.047 165.5,146.5C 167.609,151.266 168.942,156.266 169.5,161.5C 167.549,161.773 166.049,161.107 165,159.5C 162.039,149.616 158.872,139.782 155.5,130C 159.372,127.867 163.372,126.034 167.5,124.5 Z"/></g>
<g><path style="opacity:1" fill="#1a79e5" d="M 167.5,128.5 C 173.101,127.064 176.434,129.064 177.5,134.5C 177.594,136.912 176.594,138.745 174.5,140C 171.5,141.167 168.5,142.333 165.5,143.5C 163.46,140.161 161.793,136.661 160.5,133C 160.645,132.228 160.978,131.561 161.5,131C 163.852,130.76 165.852,129.927 167.5,128.5 Z"/></g>
<g><path style="opacity:1" fill="#e0e0e0" d="M 541.5,78.5 C 543.371,78.8588 544.871,79.8588 546,81.5C 546.667,94.5 546.667,107.5 546,120.5C 537.746,129.021 529.246,137.188 520.5,145C 507.82,145.833 495.154,145.666 482.5,144.5C 474.484,136.318 466.65,127.984 459,119.5C 458.333,107.167 458.333,94.8333 459,82.5C 467.5,74 476,65.5 484.5,57C 496.833,56.3333 509.167,56.3333 521.5,57C 528.705,63.7035 535.372,70.8702 541.5,78.5 Z"/></g>
<g><path style="opacity:1" fill="#828282" d="M 541.5,78.5 C 542.657,80.1376 543.824,81.8043 545,83.5C 545.833,95.5139 545.666,107.514 544.5,119.5C 536.348,127.152 528.348,134.985 520.5,143C 508.167,143.667 495.833,143.667 483.5,143C 476.337,134.837 468.837,127.004 461,119.5C 460.333,107.167 460.333,94.8333 461,82.5C 468.833,74.6667 476.667,66.8333 484.5,59C 496.833,58.3333 509.167,58.3333 521.5,59C 528.035,65.7027 534.702,72.2027 541.5,78.5 Z"/></g>
<g><path style="opacity:1" fill="#f0f0f0" d="M 471.5,104.5 C 473.467,104.261 475.301,104.594 477,105.5C 477.749,106.635 477.583,107.635 476.5,108.5C 474.668,106.043 473.001,106.043 471.5,108.5C 474.429,109.453 476.762,111.119 478.5,113.5C 478.101,116.065 476.601,117.399 474,117.5C 470.968,117.33 469.801,115.997 470.5,113.5C 471.842,115.005 473.508,115.672 475.5,115.5C 475.5,114.5 475.5,113.5 475.5,112.5C 469.42,112.014 468.087,109.348 471.5,104.5 Z"/></g>
<g><path style="opacity:1" fill="#e6e6e6" d="M 519.5,104.5 C 525.82,104.32 528.32,107.32 527,113.5C 525.309,117.213 522.475,118.379 518.5,117C 514.306,112.472 514.639,108.305 519.5,104.5 Z"/></g>
<g><path style="opacity:1" fill="#848484" d="M 519.5,107.5 C 521.167,107.5 522.833,107.5 524.5,107.5C 524.663,109.857 524.497,112.19 524,114.5C 522.333,115.833 520.667,115.833 519,114.5C 518.297,112.071 518.463,109.738 519.5,107.5 Z"/></g>
<g><path style="opacity:1" fill="#ebebeb" d="M 482.5,104.5 C 485.38,104.033 487.713,104.866 489.5,107C 489.167,107.5 488.833,108 488.5,108.5C 482.664,106.983 480.997,109.149 483.5,115C 485.464,115.624 487.131,115.124 488.5,113.5C 489.594,114.868 489.26,116.035 487.5,117C 481.242,117.702 478.742,114.868 480,108.5C 480.662,107.016 481.496,105.683 482.5,104.5 Z"/></g>
<g><path style="opacity:1" fill="#ededed" d="M 506.5,104.5 C 513.369,104.538 515.869,107.871 514,114.5C 511.833,117.287 508.999,118.12 505.5,117C 502.606,112.459 502.94,108.292 506.5,104.5 Z"/></g>
<g><path style="opacity:1" fill="#888888" d="M 506.5,107.5 C 508.167,107.5 509.833,107.5 511.5,107.5C 511.663,109.857 511.497,112.19 511,114.5C 508.978,115.991 507.312,115.658 506,113.5C 505.322,111.402 505.489,109.402 506.5,107.5 Z"/></g>
<g><path style="opacity:1" fill="#f8f8f8" d="M 529.5,105.5 C 531.402,108.337 532.069,111.671 531.5,115.5C 533.604,115.201 535.604,115.534 537.5,116.5C 534.914,117.48 532.247,117.813 529.5,117.5C 529.5,113.5 529.5,109.5 529.5,105.5 Z"/></g>
<g><path style="opacity:1" fill="#e9e9e9" d="M 498.5,104.5 C 499.5,104.5 500.5,104.5 501.5,104.5C 501.5,108.833 501.5,113.167 501.5,117.5C 500.5,117.5 499.5,117.5 498.5,117.5C 498.5,115.833 498.5,114.167 498.5,112.5C 497.167,112.5 495.833,112.5 494.5,112.5C 494.785,114.288 494.452,115.955 493.5,117.5C 492.167,113.5 492.167,109.5 493.5,105.5C 494.429,106.689 494.762,108.022 494.5,109.5C 495.833,109.5 497.167,109.5 498.5,109.5C 498.5,107.833 498.5,106.167 498.5,104.5 Z"/></g>
<g><path style="opacity:1" fill="#ececec" d="M 527.5,84.5 C 530.157,84.162 532.49,84.8287 534.5,86.5C 532.018,86.6057 529.518,86.9391 527,87.5C 525.714,92.7096 527.547,94.7096 532.5,93.5C 528.89,91.2876 529.557,90.2876 534.5,90.5C 534.788,96.3605 532.122,98.3605 526.5,96.5C 523.648,92.1571 523.981,88.1571 527.5,84.5 Z"/></g>
<g><path style="opacity:1" fill="#efefef" d="M 496.5,84.5 C 497.5,84.5 498.5,84.5 499.5,84.5C 500.551,92.9509 502.217,93.2842 504.5,85.5C 505.359,84.2258 506.026,84.3925 506.5,86C 504.954,89.351 503.954,92.851 503.5,96.5C 502.178,96.67 501.011,96.3366 500,95.5C 498.726,91.8463 497.56,88.1796 496.5,84.5 Z"/></g>
<g><path style="opacity:1" fill="#e4e4e4" d="M 512.5,84.5 C 513.552,84.3505 514.552,84.5172 515.5,85C 516.542,86.918 517.708,88.7513 519,90.5C 519.192,88.4233 519.692,86.4233 520.5,84.5C 521.833,88.5 521.833,92.5 520.5,96.5C 519.01,94.8744 517.51,93.2077 516,91.5C 515.505,93.4727 515.338,95.4727 515.5,97.5C 514.5,97.5 513.5,97.5 512.5,97.5C 512.5,93.1667 512.5,88.8333 512.5,84.5 Z"/></g>
<g><path style="opacity:1" fill="#e0e0e0" d="M 492.5,84.5 C 493.5,84.5 494.5,84.5 495.5,84.5C 495.5,88.5 495.5,92.5 495.5,96.5C 494.5,96.5 493.5,96.5 492.5,96.5C 492.5,92.5 492.5,88.5 492.5,84.5 Z"/></g>
<g><path style="opacity:1" fill="#ededed" d="M 481.5,84.5 C 484.5,84.5 487.5,84.5 490.5,84.5C 490.752,87.2438 490.085,89.7438 488.5,92C 489.167,93 489.833,94 490.5,95C 490.167,95.5 489.833,96 489.5,96.5C 488.026,95.5637 487.026,94.2303 486.5,92.5C 485.675,91.6143 484.675,91.281 483.5,91.5C 483.785,93.288 483.452,94.9547 482.5,96.5C 481.509,92.5546 481.176,88.5546 481.5,84.5 Z"/></g>
<g><path style="opacity:1" fill="#efefef" d="M 469.5,84.5 C 478.745,83.8991 481.411,87.7324 477.5,96C 474.854,96.4974 472.187,96.6641 469.5,96.5C 469.5,92.5 469.5,88.5 469.5,84.5 Z"/></g>
<g><path style="opacity:1" fill="#888888" d="M 471.5,86.5 C 474.93,85.7553 476.597,87.0886 476.5,90.5C 476.597,93.9114 474.93,95.2447 471.5,94.5C 471.5,91.8333 471.5,89.1667 471.5,86.5 Z"/></g>
<g><path style="opacity:1" fill="#fcfcfc" d="M 508.5,84.5 C 509.794,86.0478 510.461,88.0478 510.5,90.5C 510.167,92.5 509.833,94.5 509.5,96.5C 508.509,92.5546 508.176,88.5546 508.5,84.5 Z"/></g>
<g><path style="opacity:1" fill="#faf7f3" d="M 285.5,128.5 C 283.173,135.464 281.173,142.464 279.5,149.5C 279.167,149.5 278.833,149.5 278.5,149.5C 274.5,149.5 270.5,149.5 266.5,149.5C 272.492,142.175 278.825,135.175 285.5,128.5 Z"/></g>
<g><path style="opacity:1" fill="#f7f8f6" d="M 344.5,137.5 C 345.376,137.369 346.043,137.702 346.5,138.5C 350.109,144.057 353.442,149.724 356.5,155.5C 353.233,154.244 349.899,153.077 346.5,152C 329.541,150.294 312.541,149.461 295.5,149.5C 311.541,144.717 327.874,140.717 344.5,137.5 Z"/></g>
<g><path style="opacity:1" fill="#416185" d="M 262.5,146.5 C 262.586,147.496 262.252,148.329 261.5,149C 263.134,149.494 264.801,149.66 266.5,149.5C 270.5,149.5 274.5,149.5 278.5,149.5C 275.64,150.244 272.64,150.911 269.5,151.5C 267.4,150.761 265.067,150.761 262.5,151.5C 261.482,150.807 260.482,150.141 259.5,149.5C 259.5,147.5 260.5,146.5 262.5,146.5 Z"/></g>
<g><path style="opacity:1" fill="#42676b" d="M 248.5,149.5 C 251.833,149.5 255.167,149.5 258.5,149.5C 258.189,150.478 257.522,151.145 256.5,151.5C 252.929,150.594 249.595,150.26 246.5,150.5C 246.842,149.662 247.508,149.328 248.5,149.5 Z"/></g>
<g><path style="opacity:1" fill="#969696" d="M 500.5,151.5 C 502.167,151.5 503.833,151.5 505.5,151.5C 505.667,226.167 505.5,300.834 505,375.5C 503.644,374.62 502.144,374.286 500.5,374.5C 500.5,300.167 500.5,225.833 500.5,151.5 Z"/></g>
<g><path style="opacity:1" fill="#edcec8" d="M 117.5,155.5 C 118.338,155.842 118.672,156.508 118.5,157.5C 115.594,157.957 112.928,158.957 110.5,160.5C 112.023,157.636 114.357,155.969 117.5,155.5 Z"/></g>
<g><path style="opacity:1" fill="#cf4042" d="M 129.5,152.5 C 135.116,153.54 140.783,154.207 146.5,154.5C 147.473,156.139 148.806,157.473 150.5,158.5C 153.435,163.765 157.101,168.432 161.5,172.5C 161.856,174.19 162.856,175.19 164.5,175.5C 165.609,177.554 166.609,179.721 167.5,182C 166.09,192.479 164.757,202.979 163.5,213.5C 159.058,217.626 154.392,221.293 149.5,224.5C 148.566,223.432 148.232,222.099 148.5,220.5C 151.808,217.365 155.308,214.365 159,211.5C 161.083,201.254 162.083,190.921 162,180.5C 156.5,173.667 151,166.833 145.5,160C 140.617,158.597 135.617,157.764 130.5,157.5C 129.699,155.958 129.366,154.292 129.5,152.5 Z"/></g>
<g><path style="opacity:1" fill="#ce3c3e" d="M 118.5,157.5 C 121.677,165.194 123.677,173.194 124.5,181.5C 122.283,187.705 123.95,192.372 129.5,195.5C 132.924,205.611 135.59,215.945 137.5,226.5C 134.272,227.414 130.939,227.747 127.5,227.5C 125.052,226.527 122.385,226.194 119.5,226.5C 115.946,225.751 112.28,224.918 108.5,224C 104.344,218.015 99.6772,212.515 94.5,207.5C 92.8209,205.305 91.8209,202.805 91.5,200C 92.3755,191.452 93.5422,182.952 95,174.5C 100.408,169.917 105.574,165.25 110.5,160.5C 112.928,158.957 115.594,157.957 118.5,157.5 Z"/></g>
<g><path style="opacity:1" fill="#f6d122" d="M 377.5,187.5 C 376.006,173.169 369.006,162.502 356.5,155.5C 353.442,149.724 350.109,144.057 346.5,138.5C 346.043,137.702 345.376,137.369 344.5,137.5C 344.527,135.801 345.194,134.467 346.5,133.5C 348.882,132.649 350.882,131.316 352.5,129.5C 361.545,124.317 370.212,118.651 378.5,112.5C 385.111,108.523 391.778,104.523 398.5,100.5C 399.167,100.833 399.833,101.167 400.5,101.5C 411.993,119.011 423.327,136.511 434.5,154C 416.468,166.347 398.301,178.514 380,190.5C 379.148,189.429 378.315,188.429 377.5,187.5 Z"/></g>
<g><path style="opacity:1" fill="#3a280d" d="M 415.5,158.5 C 410.848,162.831 405.514,166.165 399.5,168.5C 404.152,164.169 409.486,160.835 415.5,158.5 Z"/></g>
<g><path style="opacity:1" fill="#f8cf1a" d="M 395.5,111.5 C 397.154,112.75 398.821,114.084 400.5,115.5C 400.75,117.674 401.75,119.341 403.5,120.5C 403.427,122.027 404.094,123.027 405.5,123.5C 410.604,133.534 416.604,143.034 423.5,152C 420.58,153.946 417.913,156.113 415.5,158.5C 409.486,160.835 404.152,164.169 399.5,168.5C 393.806,171.434 388.306,174.767 383,178.5C 381.383,176.237 379.55,174.237 377.5,172.5C 373.829,164.481 369.162,157.148 363.5,150.5C 363.573,148.973 362.906,147.973 361.5,147.5C 359.676,144.194 358.176,140.861 357,137.5C 369.985,128.934 382.819,120.267 395.5,111.5 Z"/></g>
<g><path style="opacity:1" fill="#291612" d="M 361.5,147.5 C 362.906,147.973 363.573,148.973 363.5,150.5C 362.094,150.027 361.427,149.027 361.5,147.5 Z"/></g>
<g><path style="opacity:1" fill="#0e0907" d="M 380.5,131.5 C 387.055,132.644 393.555,133.978 400,135.5C 400.414,135.043 400.914,134.709 401.5,134.5C 403.65,136.149 405.65,137.982 407.5,140C 405.557,141.555 403.39,142.722 401,143.5C 396.098,141.219 390.932,139.885 385.5,139.5C 384.113,145.769 383.113,152.102 382.5,158.5C 380.473,158.662 378.473,158.495 376.5,158C 375.941,157.275 375.608,156.442 375.5,155.5C 377.171,147.479 378.837,139.479 380.5,131.5 Z"/></g>
<g><path style="opacity:1" fill="#392810" d="M 405.5,123.5 C 412.436,132.521 418.769,142.021 424.5,152C 422.242,155.135 419.242,157.302 415.5,158.5C 417.913,156.113 420.58,153.946 423.5,152C 416.604,143.034 410.604,133.534 405.5,123.5 Z"/></g>
<g><path style="opacity:1" fill="#34230c" d="M 395.5,111.5 C 382.819,120.267 369.985,128.934 357,137.5C 358.176,140.861 359.676,144.194 361.5,147.5C 357.818,144.669 355.652,141.002 355,136.5C 368.305,127.769 381.805,119.435 395.5,111.5 Z"/></g>
<g><path style="opacity:1" fill="#23120c" d="M 403.5,120.5 C 404.906,120.973 405.573,121.973 405.5,123.5C 404.094,123.027 403.427,122.027 403.5,120.5 Z"/></g>
<g><path style="opacity:1" fill="#301a07" d="M 400.5,115.5 C 402.25,116.659 403.25,118.326 403.5,120.5C 401.75,119.341 400.75,117.674 400.5,115.5 Z"/></g>
<g><path style="opacity:1" fill="#503b11" d="M 400.5,115.5 C 398.821,114.084 397.154,112.75 395.5,111.5C 395.948,109.535 396.948,109.202 398.5,110.5C 399.456,112.075 400.123,113.742 400.5,115.5 Z"/></g>
<g><path style="opacity:1" fill="#36260c" d="M 363.5,150.5 C 369.162,157.148 373.829,164.481 377.5,172.5C 371.838,165.852 367.171,158.519 363.5,150.5 Z"/></g>
<g><path style="opacity:1" fill="#f8ebe6" d="M 135.5,175.5 C 135.557,174.391 135.89,173.391 136.5,172.5C 138.681,170.909 141.014,169.576 143.5,168.5C 147.697,169.562 149.197,172.228 148,176.5C 146.315,178.017 144.815,179.684 143.5,181.5C 144.833,183.167 146.167,184.833 147.5,186.5C 146.998,187.521 146.332,187.688 145.5,187C 142.031,183.188 138.698,179.355 135.5,175.5 Z"/></g>
<g><path style="opacity:1" fill="#f1d0c8" d="M 130.5,157.5 C 135.617,157.764 140.617,158.597 145.5,160C 151,166.833 156.5,173.667 162,180.5C 162.083,190.921 161.083,201.254 159,211.5C 155.308,214.365 151.808,217.365 148.5,220.5C 147.662,220.158 147.328,219.492 147.5,218.5C 151.124,216.049 154.624,213.383 158,210.5C 158.639,201.219 159.806,192.052 161.5,183C 156.195,175.561 150.528,168.394 144.5,161.5C 140.283,160.088 135.95,159.421 131.5,159.5C 130.662,159.158 130.328,158.492 130.5,157.5 Z"/></g>
<g><path style="opacity:1" fill="#f2dace" d="M 110.5,160.5 C 105.574,165.25 100.408,169.917 95,174.5C 93.5422,182.952 92.3755,191.452 91.5,200C 91.8209,202.805 92.8209,205.305 94.5,207.5C 92.9256,207.063 91.7589,206.063 91,204.5C 90.2556,194.411 90.9223,184.411 93,174.5C 98.414,169.247 104.247,164.58 110.5,160.5 Z"/></g>
<g><path style="opacity:1" fill="#f9fbfb" d="M 199.5,163.5 C 195.094,168.313 192.26,173.98 191,180.5C 187.951,196.128 185.118,211.794 182.5,227.5C 177.222,226.287 171.889,225.287 166.5,224.5C 157.693,225.804 154.193,230.804 156,239.5C 159.358,243.234 163.524,245.568 168.5,246.5C 166.79,250.21 164.123,252.877 160.5,254.5C 161.167,250.5 159.5,248.833 155.5,249.5C 153.97,241.049 151.97,232.715 149.5,224.5C 154.392,221.293 159.058,217.626 163.5,213.5C 164.757,202.979 166.09,192.479 167.5,182C 166.609,179.721 165.609,177.554 164.5,175.5C 175.958,171.259 187.625,167.259 199.5,163.5 Z"/></g>
<g><path style="opacity:1" fill="#cd4445" d="M 142.5,170.5 C 144.948,170.085 146.281,171.085 146.5,173.5C 144.236,180.347 141.236,180.847 137.5,175C 139.24,173.483 140.906,171.983 142.5,170.5 Z"/></g>
<g><path style="opacity:1" fill="#5f5b5b" d="M 130.5,141.5 C 130.5,142.833 130.5,144.167 130.5,145.5C 129.5,145.5 128.5,145.5 127.5,145.5C 127.171,148.228 127.837,150.562 129.5,152.5C 129.366,154.292 129.699,155.958 130.5,157.5C 130.328,158.492 130.662,159.158 131.5,159.5C 131.605,163.319 132.438,166.986 134,170.5C 134.417,171.756 135.25,172.423 136.5,172.5C 135.89,173.391 135.557,174.391 135.5,175.5C 135.394,178.079 136.061,180.412 137.5,182.5C 138.265,185.67 139.265,188.67 140.5,191.5C 142.075,200.804 144.408,209.804 147.5,218.5C 147.328,219.492 147.662,220.158 148.5,220.5C 148.232,222.099 148.566,223.432 149.5,224.5C 151.97,232.715 153.97,241.049 155.5,249.5C 159.5,248.833 161.167,250.5 160.5,254.5C 157.209,262.05 153.543,269.383 149.5,276.5C 147.172,269.196 144.839,261.863 142.5,254.5C 143.325,253.614 144.325,253.281 145.5,253.5C 144.104,246.569 142.104,239.902 139.5,233.5C 139.843,231.517 139.176,230.183 137.5,229.5C 138.625,228.348 138.625,227.348 137.5,226.5C 135.59,215.945 132.924,205.611 129.5,195.5C 128.872,192.91 127.705,190.577 126,188.5C 125.257,186.559 125.424,184.726 126.5,183C 125.956,182.283 125.289,181.783 124.5,181.5C 123.677,173.194 121.677,165.194 118.5,157.5C 118.672,156.508 118.338,155.842 117.5,155.5C 117.5,154.167 117.5,152.833 117.5,151.5C 116.167,151.5 114.833,151.5 113.5,151.5C 113.011,148.676 111.344,147.343 108.5,147.5C 109.884,146.199 111.384,146.199 113,147.5C 114.667,146.167 116.333,144.833 118,143.5C 119.016,144.634 119.683,144.301 120,142.5C 123.02,143.081 126.02,143.415 129,143.5C 129.278,142.584 129.778,141.918 130.5,141.5 Z"/></g>
<g><path style="opacity:1" fill="#3f2912" d="M 399.5,168.5 C 394.426,173.215 388.76,177.215 382.5,180.5C 380.023,178.353 378.356,175.686 377.5,172.5C 379.55,174.237 381.383,176.237 383,178.5C 388.306,174.767 393.806,171.434 399.5,168.5 Z"/></g>
<g><path style="opacity:1" fill="#d04647" d="M 113.5,151.5 C 114.833,151.5 116.167,151.5 117.5,151.5C 117.5,152.833 117.5,154.167 117.5,155.5C 114.357,155.969 112.023,157.636 110.5,160.5C 104.247,164.58 98.414,169.247 93,174.5C 90.9223,184.411 90.2556,194.411 91,204.5C 91.7589,206.063 92.9256,207.063 94.5,207.5C 95.0722,209.255 95.9055,210.922 97,212.5C 100.833,217 104.667,221.5 108.5,226C 112.152,226.499 115.818,226.665 119.5,226.5C 122.385,226.194 125.052,226.527 127.5,227.5C 130.507,229.175 133.84,229.841 137.5,229.5C 139.176,230.183 139.843,231.517 139.5,233.5C 128.085,233.157 116.752,231.99 105.5,230C 98.8906,221.964 92.3906,213.797 86,205.5C 85.8274,194.08 86.8274,182.747 89,171.5C 97.0406,164.621 105.207,157.954 113.5,151.5 Z"/></g>
<g><path style="opacity:1" fill="#cd3c3e" d="M 131.5,159.5 C 135.95,159.421 140.283,160.088 144.5,161.5C 150.528,168.394 156.195,175.561 161.5,183C 159.806,192.052 158.639,201.219 158,210.5C 154.624,213.383 151.124,216.049 147.5,218.5C 144.408,209.804 142.075,200.804 140.5,191.5C 141.075,187.845 140.075,184.845 137.5,182.5C 136.061,180.412 135.394,178.079 135.5,175.5C 138.698,179.355 142.031,183.188 145.5,187C 146.332,187.688 146.998,187.521 147.5,186.5C 146.167,184.833 144.833,183.167 143.5,181.5C 144.815,179.684 146.315,178.017 148,176.5C 149.197,172.228 147.697,169.562 143.5,168.5C 141.014,169.576 138.681,170.909 136.5,172.5C 135.25,172.423 134.417,171.756 134,170.5C 132.438,166.986 131.605,163.319 131.5,159.5 Z"/></g>
<g><path style="opacity:1" fill="#eacdc6" d="M 137.5,182.5 C 140.075,184.845 141.075,187.845 140.5,191.5C 139.265,188.67 138.265,185.67 137.5,182.5 Z"/></g>
<g><path style="opacity:1" fill="#f5e1db" d="M 118.5,186.5 C 119.497,186.47 120.164,186.97 120.5,188C 119.201,189.326 117.868,190.66 116.5,192C 119.316,195.783 122.483,199.283 126,202.5C 126.749,203.635 126.583,204.635 125.5,205.5C 122.009,201.84 118.676,198.006 115.5,194C 113.613,193.837 112.113,194.671 111,196.5C 110.308,195.975 109.808,195.308 109.5,194.5C 113.137,192.52 116.137,189.854 118.5,186.5 Z"/></g>
<g><path style="opacity:1" fill="#f0dfd7" d="M 124.5,181.5 C 125.289,181.783 125.956,182.283 126.5,183C 125.424,184.726 125.257,186.559 126,188.5C 127.705,190.577 128.872,192.91 129.5,195.5C 123.95,192.372 122.283,187.705 124.5,181.5 Z"/></g>
<g><path style="opacity:1" fill="#f8e7e1" d="M 103.5,198.5 C 111.839,198.959 112.173,199.793 104.5,201C 102.845,202.444 102.178,204.278 102.5,206.5C 105.722,206.15 108.888,205.483 112,204.5C 117.654,205.93 118.82,209.097 115.5,214C 111.896,216.135 108.563,215.968 105.5,213.5C 106,213.167 106.5,212.833 107,212.5C 112.109,214.359 114.776,212.693 115,207.5C 114.275,206.941 113.442,206.608 112.5,206.5C 109.004,208.261 105.337,208.761 101.5,208C 99.867,204.285 100.534,201.118 103.5,198.5 Z"/></g>
<g><path style="opacity:1" fill="#f4d7ca" d="M 94.5,207.5 C 99.6772,212.515 104.344,218.015 108.5,224C 112.28,224.918 115.946,225.751 119.5,226.5C 115.818,226.665 112.152,226.499 108.5,226C 104.667,221.5 100.833,217 97,212.5C 95.9055,210.922 95.0722,209.255 94.5,207.5 Z"/></g>
<g><path style="opacity:1" fill="#f3c2bc" d="M 137.5,226.5 C 138.625,227.348 138.625,228.348 137.5,229.5C 133.84,229.841 130.507,229.175 127.5,227.5C 130.939,227.747 134.272,227.414 137.5,226.5 Z"/></g>
<g><path style="opacity:1" fill="#175997" d="M 258.5,149.5 C 258.833,149.5 259.167,149.5 259.5,149.5C 260.482,150.141 261.482,150.807 262.5,151.5C 265.067,150.761 267.4,150.761 269.5,151.5C 272.64,150.911 275.64,150.244 278.5,149.5C 278.833,149.5 279.167,149.5 279.5,149.5C 284.833,149.5 290.167,149.5 295.5,149.5C 312.541,149.461 329.541,150.294 346.5,152C 349.899,153.077 353.233,154.244 356.5,155.5C 369.006,162.502 376.006,173.169 377.5,187.5C 379.451,200.538 381.618,213.538 384,226.5C 390.445,224.34 396.945,224.173 403.5,226C 410.506,232.573 410.172,238.573 402.5,244C 398.68,244.235 395.013,245.068 391.5,246.5C 397.24,252.738 402.407,259.405 407,266.5C 409.066,271.363 410.732,276.363 412,281.5C 414.393,299.48 414.727,317.48 413,335.5C 412.079,338.336 410.912,341.002 409.5,343.5C 406.186,344.664 402.852,345.83 399.5,347C 390.989,347.937 382.655,349.103 374.5,350.5C 310.805,354.75 247.139,354.416 183.5,349.5C 171.436,349.438 160.103,346.438 149.5,340.5C 148.394,337.946 147.561,335.279 147,332.5C 145.845,313.709 146.678,295.043 149.5,276.5C 153.543,269.383 157.209,262.05 160.5,254.5C 164.123,252.877 166.79,250.21 168.5,246.5C 163.524,245.568 159.358,243.234 156,239.5C 154.193,230.804 157.693,225.804 166.5,224.5C 171.889,225.287 177.222,226.287 182.5,227.5C 185.118,211.794 187.951,196.128 191,180.5C 192.26,173.98 195.094,168.313 199.5,163.5C 201.449,161.703 203.116,159.703 204.5,157.5C 208.771,155.703 213.104,153.87 217.5,152C 225.447,150.725 233.447,150.225 241.5,150.5C 242.167,150.5 242.833,150.5 243.5,150.5C 244.5,150.5 245.5,150.5 246.5,150.5C 249.595,150.26 252.929,150.594 256.5,151.5C 257.522,151.145 258.189,150.478 258.5,149.5 Z"/></g>
<g><path style="opacity:1" fill="#fcfcfd" d="M 355.5,241.5 C 355.5,241.167 355.5,240.833 355.5,240.5C 359.387,240.09 363.053,239.09 366.5,237.5C 366.396,235.297 365.73,233.297 364.5,231.5C 363.37,229.685 362.704,227.685 362.5,225.5C 362.5,222.833 362.5,220.167 362.5,217.5C 362.5,216.167 362.5,214.833 362.5,213.5C 361.167,213.5 359.833,213.5 358.5,213.5C 358.631,212.761 358.464,212.094 358,211.5C 356.333,211.833 354.667,212.167 353,212.5C 350.899,211.076 348.733,209.742 346.5,208.5C 349.746,203.299 350.079,197.966 347.5,192.5C 346.06,191.048 344.394,190.048 342.5,189.5C 342.666,184.489 342.499,179.489 342,174.5C 341.5,173.5 341,172.5 340.5,171.5C 336.129,168.662 331.295,166.995 326,166.5C 323.7,166.494 321.534,166.994 319.5,168C 317.053,170.903 314.386,173.57 311.5,176C 313.29,179.583 313.957,183.416 313.5,187.5C 313.672,188.492 313.338,189.158 312.5,189.5C 306.788,192.827 304.955,197.827 307,204.5C 308.706,205.308 309.539,206.641 309.5,208.5C 299.74,209.009 294.407,214.009 293.5,223.5C 291.002,227.829 289.835,232.495 290,237.5C 291.5,239.469 293.333,240.802 295.5,241.5C 293.833,241.5 292.167,241.5 290.5,241.5C 283.352,240.508 276.019,240.175 268.5,240.5C 268.391,233.071 267.557,225.738 266,218.5C 262.269,213.6 257.769,209.6 252.5,206.5C 255.569,202.228 256.235,197.561 254.5,192.5C 252.28,190.437 249.946,188.604 247.5,187C 238.5,186.333 229.5,186.333 220.5,187C 216.075,189.451 214.075,193.284 214.5,198.5C 214.552,201.322 215.219,203.989 216.5,206.5C 209.438,208.522 204.105,212.689 200.5,219C 199.306,226.518 198.306,234.018 197.5,241.5C 194.833,241.5 192.167,241.5 189.5,241.5C 192.694,218.669 196.861,196.002 202,173.5C 205.407,166.534 210.907,162.034 218.5,160C 261.846,159.129 305.179,159.462 348.5,161C 357.808,163.561 363.974,169.394 367,178.5C 370.719,199.479 374.219,220.479 377.5,241.5C 370.167,241.5 362.833,241.5 355.5,241.5 Z"/></g>
<g><path style="opacity:1" fill="#d6ddeb" d="M 351.5,225.5 C 349.735,226.461 347.735,226.795 345.5,226.5C 345.167,226.5 344.833,226.5 344.5,226.5C 344.5,225.833 344.833,225.5 345.5,225.5C 347.199,225.66 348.866,225.494 350.5,225C 348.852,223.323 347.185,223.156 345.5,224.5C 344.539,222.735 344.205,220.735 344.5,218.5C 348.105,218.529 351.605,219.195 355,220.5C 359.248,220.397 359.414,219.897 355.5,219C 357.259,218.202 358.926,218.369 360.5,219.5C 360.291,220.086 359.957,220.586 359.5,221C 356.854,221.497 354.187,221.664 351.5,221.5C 351.5,222.833 351.5,224.167 351.5,225.5 Z"/></g>
<g><path style="opacity:1" fill="#9cc6ea" d="M 343.5,217.5 C 349.5,217.5 355.5,217.5 361.5,217.5C 361.833,217.5 362.167,217.5 362.5,217.5C 362.5,220.167 362.5,222.833 362.5,225.5C 358.833,225.5 355.167,225.5 351.5,225.5C 351.5,224.167 351.5,222.833 351.5,221.5C 354.187,221.664 356.854,221.497 359.5,221C 359.957,220.586 360.291,220.086 360.5,219.5C 358.926,218.369 357.259,218.202 355.5,219C 359.414,219.897 359.248,220.397 355,220.5C 351.605,219.195 348.105,218.529 344.5,218.5C 344.205,220.735 344.539,222.735 345.5,224.5C 345.5,224.833 345.5,225.167 345.5,225.5C 344.833,225.5 344.5,225.833 344.5,226.5C 343.523,223.713 343.19,220.713 343.5,217.5 Z"/></g>
<g><path style="opacity:1" fill="#153a58" d="M 345.5,225.5 C 345.5,225.167 345.5,224.833 345.5,224.5C 347.185,223.156 348.852,223.323 350.5,225C 348.866,225.494 347.199,225.66 345.5,225.5 Z"/></g>
<g><path style="opacity:1" fill="#1880e7" d="M 347.5,214.5 C 347.082,215.222 346.416,215.722 345.5,216C 350.73,217.036 355.73,216.536 360.5,214.5C 361.386,215.325 361.719,216.325 361.5,217.5C 355.5,217.5 349.5,217.5 343.5,217.5C 343.5,216.5 343.5,215.5 343.5,214.5C 344.833,214.5 346.167,214.5 347.5,214.5 Z"/></g>
<g><path style="opacity:1" fill="#cc3b3c" d="M 319.5,208.5 C 320.961,215.736 325.294,218.069 332.5,215.5C 333.5,214.167 334.5,212.833 335.5,211.5C 337.045,210.548 338.712,210.215 340.5,210.5C 343.682,210.584 346.015,211.917 347.5,214.5C 346.167,214.5 344.833,214.5 343.5,214.5C 343.5,215.5 343.5,216.5 343.5,217.5C 343.19,220.713 343.523,223.713 344.5,226.5C 344.833,226.5 345.167,226.5 345.5,226.5C 348.771,229.268 351.938,232.268 355,235.5C 355.483,236.448 355.649,237.448 355.5,238.5C 357.854,238.162 360.187,237.662 362.5,237C 362.818,234.958 362.985,232.791 363,230.5C 363.383,231.056 363.883,231.389 364.5,231.5C 365.73,233.297 366.396,235.297 366.5,237.5C 363.053,239.09 359.387,240.09 355.5,240.5C 341.186,230.81 325.852,228.976 309.5,235C 306.642,236.694 304.309,238.861 302.5,241.5C 300.167,241.5 297.833,241.5 295.5,241.5C 293.333,240.802 291.5,239.469 290,237.5C 289.835,232.495 291.002,227.829 293.5,223.5C 294.867,219.295 297.534,216.128 301.5,214C 307.243,211.293 313.243,209.46 319.5,208.5 Z"/></g>
<g><path style="opacity:1" fill="#5b9ce5" d="M 358.5,213.5 C 359.833,213.5 361.167,213.5 362.5,213.5C 362.5,214.833 362.5,216.167 362.5,217.5C 362.167,217.5 361.833,217.5 361.5,217.5C 361.719,216.325 361.386,215.325 360.5,214.5C 355.73,216.536 350.73,217.036 345.5,216C 346.416,215.722 347.082,215.222 347.5,214.5C 351.568,214.522 355.235,214.188 358.5,213.5 Z"/></g>
<g><path style="opacity:1" fill="#d1cbca" d="M 312.5,189.5 C 312.674,191.861 313.007,194.194 313.5,196.5C 314.833,196.5 316.167,196.5 317.5,196.5C 318.94,200.372 320.606,204.039 322.5,207.5C 321.209,207.263 320.209,207.596 319.5,208.5C 313.243,209.46 307.243,211.293 301.5,214C 297.534,216.128 294.867,219.295 293.5,223.5C 294.407,214.009 299.74,209.009 309.5,208.5C 309.539,206.641 308.706,205.308 307,204.5C 304.955,197.827 306.788,192.827 312.5,189.5 Z"/></g>
<g><path style="opacity:1" fill="#d0ccca" d="M 342.5,189.5 C 344.394,190.048 346.06,191.048 347.5,192.5C 350.079,197.966 349.746,203.299 346.5,208.5C 348.733,209.742 350.899,211.076 353,212.5C 354.667,212.167 356.333,211.833 358,211.5C 358.464,212.094 358.631,212.761 358.5,213.5C 355.235,214.188 351.568,214.522 347.5,214.5C 346.015,211.917 343.682,210.584 340.5,210.5C 338.958,209.837 337.291,209.17 335.5,208.5C 334.947,206.273 334.947,203.939 335.5,201.5C 336.5,201.5 337.5,201.5 338.5,201.5C 338.351,200.448 338.517,199.448 339,198.5C 343.324,196.702 344.49,193.702 342.5,189.5 Z"/></g>
<g><path style="opacity:1" fill="#f5b898" d="M 342.5,189.5 C 344.49,193.702 343.324,196.702 339,198.5C 338.517,199.448 338.351,200.448 338.5,201.5C 337.5,201.5 336.5,201.5 335.5,201.5C 334.947,203.939 334.947,206.273 335.5,208.5C 337.291,209.17 338.958,209.837 340.5,210.5C 338.712,210.215 337.045,210.548 335.5,211.5C 334.5,212.833 333.5,214.167 332.5,215.5C 325.294,218.069 320.961,215.736 319.5,208.5C 320.209,207.596 321.209,207.263 322.5,207.5C 320.606,204.039 318.94,200.372 317.5,196.5C 316.167,196.5 314.833,196.5 313.5,196.5C 313.007,194.194 312.674,191.861 312.5,189.5C 313.338,189.158 313.672,188.492 313.5,187.5C 314.264,189.74 315.098,192.073 316,194.5C 316.333,190.833 316.667,187.167 317,183.5C 317.374,182.584 317.874,181.75 318.5,181C 323.863,180.736 329.197,180.236 334.5,179.5C 337.032,179.864 338.865,181.197 340,183.5C 340.333,186.167 340.667,188.833 341,191.5C 341.278,190.584 341.778,189.918 342.5,189.5 Z"/></g>
<g><path style="opacity:1" fill="#cdcece" d="M 290.5,241.5 C 259.5,241.5 228.5,241.5 197.5,241.5C 198.306,234.018 199.306,226.518 200.5,219C 204.105,212.689 209.438,208.522 216.5,206.5C 215.219,203.989 214.552,201.322 214.5,198.5C 214.075,193.284 216.075,189.451 220.5,187C 229.5,186.333 238.5,186.333 247.5,187C 249.946,188.604 252.28,190.437 254.5,192.5C 256.235,197.561 255.569,202.228 252.5,206.5C 257.769,209.6 262.269,213.6 266,218.5C 267.557,225.738 268.391,233.071 268.5,240.5C 276.019,240.175 283.352,240.508 290.5,241.5 Z"/></g>
<g><path style="opacity:1" fill="#0e1137" d="M 342.5,189.5 C 341.778,189.918 341.278,190.584 341,191.5C 340.667,188.833 340.333,186.167 340,183.5C 338.865,181.197 337.032,179.864 334.5,179.5C 329.197,180.236 323.863,180.736 318.5,181C 317.874,181.75 317.374,182.584 317,183.5C 316.667,187.167 316.333,190.833 316,194.5C 315.098,192.073 314.264,189.74 313.5,187.5C 313.957,183.416 313.29,179.583 311.5,176C 314.386,173.57 317.053,170.903 319.5,168C 321.534,166.994 323.7,166.494 326,166.5C 331.295,166.995 336.129,168.662 340.5,171.5C 341,172.5 341.5,173.5 342,174.5C 342.499,179.489 342.666,184.489 342.5,189.5 Z"/></g>
<g><path style="opacity:1" fill="#9c7671" d="M 331.5,184.5 C 334.179,184.673 336.513,185.673 338.5,187.5C 337.675,188.386 336.675,188.719 335.5,188.5C 335.719,189.675 335.386,190.675 334.5,191.5C 332.991,189.344 331.991,187.01 331.5,184.5 Z"/></g>
<g><path style="opacity:1" fill="#402a2c" d="M 319.5,185.5 C 325.796,185.441 325.963,186.108 320,187.5C 318.316,187.317 318.15,186.65 319.5,185.5 Z"/></g>
<g><path style="opacity:1" fill="#0b0506" d="M 355.5,240.5 C 355.5,240.833 355.5,241.167 355.5,241.5C 350.5,241.5 345.5,241.5 340.5,241.5C 340.038,240.12 339.038,239.453 337.5,239.5C 332.2,238.431 326.866,238.264 321.5,239C 319.148,239.24 317.148,240.073 315.5,241.5C 311.167,241.5 306.833,241.5 302.5,241.5C 304.309,238.861 306.642,236.694 309.5,235C 325.852,228.976 341.186,230.81 355.5,240.5 Z"/></g>
<g><path style="opacity:1" fill="#f8b594" d="M 351.5,225.5 C 355.167,225.5 358.833,225.5 362.5,225.5C 362.704,227.685 363.37,229.685 364.5,231.5C 363.883,231.389 363.383,231.056 363,230.5C 362.985,232.791 362.818,234.958 362.5,237C 360.187,237.662 357.854,238.162 355.5,238.5C 355.649,237.448 355.483,236.448 355,235.5C 351.938,232.268 348.771,229.268 345.5,226.5C 347.735,226.795 349.735,226.461 351.5,225.5 Z"/></g>
<g><path style="opacity:1" fill="#b03a48" d="M 340.5,241.5 C 332.167,241.5 323.833,241.5 315.5,241.5C 317.148,240.073 319.148,239.24 321.5,239C 326.866,238.264 332.2,238.431 337.5,239.5C 339.038,239.453 340.038,240.12 340.5,241.5 Z"/></g>
<g><path style="opacity:1" fill="#e7e9eb" d="M 377.5,269.5 C 385.664,268.242 392.497,270.575 398,276.5C 401.471,288.724 396.804,295.724 384,297.5C 376.509,297.43 371.176,294.097 368,287.5C 366.676,279.149 369.843,273.149 377.5,269.5 Z"/></g>
<g><path style="opacity:1" fill="#e7e9ea" d="M 183.5,268.5 C 191.121,268.066 197.287,270.733 202,276.5C 204.419,288.266 199.586,294.932 187.5,296.5C 180.388,296.698 175.221,293.698 172,287.5C 169.993,277.388 173.826,271.055 183.5,268.5 Z"/></g>
<g><path style="opacity:1" fill="#01407c" d="M 165.5,300.5 C 238.325,304.069 311.158,304.403 384,301.5C 386.557,302.237 389.057,302.57 391.5,302.5C 386.965,304.178 382.298,305.345 377.5,306C 314.504,310.592 251.504,310.592 188.5,306C 181.537,304.755 174.537,303.755 167.5,303C 166.244,302.583 165.577,301.75 165.5,300.5 Z"/></g>
<g><path style="opacity:1" fill="#8997a8" d="M 333.5,323.5 C 332.833,323.167 332.167,322.833 331.5,322.5C 330.317,321.496 328.984,320.662 327.5,320C 297.168,319.5 266.835,319.333 236.5,319.5C 235.833,319.5 235.167,319.5 234.5,319.5C 234.611,318.883 234.944,318.383 235.5,318C 266.839,317.167 298.172,317.333 329.5,318.5C 331.611,319.605 332.945,321.271 333.5,323.5 Z"/></g>
<g><path style="opacity:1" fill="#38393a" d="M 165.5,316.5 C 175.223,317.939 184.39,320.939 193,325.5C 193.499,329.486 193.666,333.486 193.5,337.5C 183.512,336.668 173.512,336.002 163.5,335.5C 162.968,328.952 163.635,322.618 165.5,316.5 Z"/></g>
<g><path style="opacity:1" fill="#3a3a39" d="M 236.5,319.5 C 266.835,319.333 297.168,319.5 327.5,320C 328.984,320.662 330.317,321.496 331.5,322.5C 331.824,329.268 330.491,335.601 327.5,341.5C 298.172,342.667 268.839,342.833 239.5,342C 238.069,341.535 236.903,340.701 236,339.5C 234.347,333.922 233.68,328.255 234,322.5C 235.045,321.627 235.878,320.627 236.5,319.5 Z"/></g>
<g><path style="opacity:1" fill="#38393b" d="M 383.5,319.5 C 387.5,319.5 391.5,319.5 395.5,319.5C 395.5,324.833 395.5,330.167 395.5,335.5C 385.552,336.993 375.552,337.993 365.5,338.5C 365.334,334.486 365.501,330.486 366,326.5C 366.692,325.975 367.192,325.308 367.5,324.5C 373.354,323.991 378.687,322.324 383.5,319.5 Z"/></g>
<g><path style="opacity:1" fill="#979da0" d="M 234.5,319.5 C 235.167,319.5 235.833,319.5 236.5,319.5C 235.878,320.627 235.045,321.627 234,322.5C 233.68,328.255 234.347,333.922 236,339.5C 236.903,340.701 238.069,341.535 239.5,342C 268.839,342.833 298.172,342.667 327.5,341.5C 330.491,335.601 331.824,329.268 331.5,322.5C 332.167,322.833 332.833,323.167 333.5,323.5C 334.004,331.146 332.004,337.979 327.5,344C 298.167,344.667 268.833,344.667 239.5,344C 235.793,342.449 233.626,339.616 233,335.5C 231.908,331.203 231.575,326.869 232,322.5C 232.377,321.058 233.21,320.058 234.5,319.5 Z"/></g>
<g><path style="opacity:1" fill="#050506" d="M 149.5,340.5 C 160.103,346.438 171.436,349.438 183.5,349.5C 183.722,355.111 183.056,360.611 181.5,366C 179.835,368.865 177.835,371.365 175.5,373.5C 169.167,374.833 162.833,374.833 156.5,373.5C 152.68,368.549 150.513,362.883 150,356.5C 149.501,351.177 149.334,345.844 149.5,340.5 Z"/></g>
<g><path style="opacity:1" fill="#060708" d="M 409.5,343.5 C 409.822,350.639 408.988,357.639 407,364.5C 406.546,368.075 405.046,371.075 402.5,373.5C 396.74,375.519 390.74,376.019 384.5,375C 382.963,373.293 381.296,371.793 379.5,370.5C 378.496,369.317 377.662,367.984 377,366.5C 376.055,361.044 375.222,355.711 374.5,350.5C 382.655,349.103 390.989,347.937 399.5,347C 402.852,345.83 406.186,344.664 409.5,343.5 Z"/></g>
<g><path style="opacity:1" fill="#fcfdfc" d="M 183.5,349.5 C 247.139,354.416 310.805,354.75 374.5,350.5C 375.222,355.711 376.055,361.044 377,366.5C 377.662,367.984 378.496,369.317 379.5,370.5C 379.33,371.822 379.663,372.989 380.5,374C 311.999,374.832 243.665,374.665 175.5,373.5C 177.835,371.365 179.835,368.865 181.5,366C 183.056,360.611 183.722,355.111 183.5,349.5 Z"/></g>
<g><path style="opacity:1" fill="#c6c6c6" d="M 505.5,151.5 C 505.833,151.5 506.167,151.5 506.5,151.5C 506.5,225.833 506.5,300.167 506.5,374.5C 531.5,374.5 556.5,374.5 581.5,374.5C 582.441,379.07 582.774,383.737 582.5,388.5C 399.167,388.5 215.833,388.5 32.5,388.5C 32.5,383.833 32.5,379.167 32.5,374.5C 74.0034,374.832 115.337,374.499 156.5,373.5C 162.833,374.833 169.167,374.833 175.5,373.5C 243.665,374.665 311.999,374.832 380.5,374C 379.663,372.989 379.33,371.822 379.5,370.5C 381.296,371.793 382.963,373.293 384.5,375C 390.74,376.019 396.74,375.519 402.5,373.5C 434.996,374.498 467.662,374.832 500.5,374.5C 502.144,374.286 503.644,374.62 505,375.5C 505.5,300.834 505.667,226.167 505.5,151.5 Z"/></g>
<g><path style="opacity:1" fill="#d5d5d5" d="M 581.5,374.5 C 583.442,379.056 584.108,384.056 583.5,389.5C 399.666,389.833 215.999,389.5 32.5,388.5C 215.833,388.5 399.167,388.5 582.5,388.5C 582.774,383.737 582.441,379.07 581.5,374.5 Z"/></g>
</svg>
