<?xml version="1.0" encoding="UTF-8" standalone="no"?>
<svg
   data-name="Layer 1"
   viewBox="0 0 512 512"
   version="1.1"
   id="svg16192"
   sodipodi:docname="price.svg"
   inkscape:version="1.2 (dc2aedaf03, 2022-05-15)"
   xmlns:inkscape="http://www.inkscape.org/namespaces/inkscape"
   xmlns:sodipodi="http://sodipodi.sourceforge.net/DTD/sodipodi-0.dtd"
   xmlns="http://www.w3.org/2000/svg"
   xmlns:svg="http://www.w3.org/2000/svg">
  <defs
     id="defs16196" />
  <sodipodi:namedview
     id="namedview16194"
     pagecolor="#ffffff"
     bordercolor="#000000"
     borderopacity="0.25"
     inkscape:showpageshadow="2"
     inkscape:pageopacity="0.0"
     inkscape:pagecheckerboard="0"
     inkscape:deskcolor="#d1d1d1"
     showgrid="false"
     inkscape:zoom="1.6347656"
     inkscape:cx="299.73716"
     inkscape:cy="227.55556"
     inkscape:window-width="1920"
     inkscape:window-height="1017"
     inkscape:window-x="-8"
     inkscape:window-y="-8"
     inkscape:window-maximized="1"
     inkscape:current-layer="svg16192" />
  <circle
     cx="46"
     cy="286"
     r="7.5"
     id="circle16168" />
  <circle
     cx="406"
     cy="286"
     r="7.5"
     id="circle16170" />
  <rect
     width="437"
     height="242"
     x="67.5"
     y="105"
     fill="#19ac66"
     rx="30"
     id="rect16172"
     style="fill:#d9d9d9;fill-opacity:1" />
  <rect
     width="437"
     height="242"
     x="52.5"
     y="120"
     fill="#17a454"
     rx="30"
     id="rect16174"
     style="fill:#d1d1d1;fill-opacity:1" />
  <rect
     width="437"
     height="242"
     x="37.5"
     y="135"
     fill="#19ac66"
     rx="30"
     id="rect16176"
     style="fill:#d9d9d9;fill-opacity:1" />
  <rect
     width="437"
     height="242"
     x="22.5"
     y="150"
     fill="#17a454"
     rx="30"
     id="rect16178"
     style="fill:#cccccc;fill-opacity:1" />
  <rect
     width="437"
     height="242"
     x="7.5"
     y="165"
     fill="#138b4c"
     rx="30"
     id="rect16180"
     style="fill:#f24949;fill-opacity:1" />
  <path
     fill="#19ac66"
     d="M384.5,407H67.5a60,60,0,0,0-60-60V225a60,60,0,0,0,60-60h317a60,60,0,0,0,60,60V347A60,60,0,0,0,384.5,407Z"
     id="path16182"
     style="fill:#d9d9d9;fill-opacity:1" />
  <path
     fill="#138b4c"
     d="M226,211a85,85,0,1,0,60.1,24.9A84.41,84.41,0,0,0,226,211Z"
     id="path16184" />
  <path
     fill="#fed947"
     d="M226,378.5a92.49,92.49,0,1,1,65.41-27.09A91.9,91.9,0,0,1,226,378.5Z"
     id="path16186" />
  <path
     fill="#fecc30"
     d="M291.41,220.59A91.9,91.9,0,0,0,226,193.5a94.18,94.18,0,0,0-12.5.85,92.5,92.5,0,0,1,0,183.3,94.18,94.18,0,0,0,12.5.85,92.5,92.5,0,0,0,65.41-157.91Z"
     id="path16188" />
  <path
     fill="#3c3b41"
     d="M474.5,97.43H97.5a37.55,37.55,0,0,0-36.86,30.64,37.58,37.58,0,0,0-30,30A37.55,37.55,0,0,0,0,194.93v182a37.54,37.54,0,0,0,37.5,37.5h377a37.56,37.56,0,0,0,36.86-30.64,37.59,37.59,0,0,0,30-30A37.56,37.56,0,0,0,512,316.93v-182A37.55,37.55,0,0,0,474.5,97.43ZM15,194.93a22.52,22.52,0,0,1,22.5-22.5h22A52.61,52.61,0,0,1,15,216.89Zm22.5,204.5A22.52,22.52,0,0,1,15,376.93V355a52.61,52.61,0,0,1,44.45,44.46ZM437,376.93a22.53,22.53,0,0,1-22.5,22.5h-22A52.61,52.61,0,0,1,437,355Zm0-37.09a67.64,67.64,0,0,0-59.59,59.59H74.58A67.63,67.63,0,0,0,15,339.84V232a67.63,67.63,0,0,0,59.58-59.59H377.41A67.64,67.64,0,0,0,437,232Zm0-122.95a52.61,52.61,0,0,1-44.46-44.46h22a22.53,22.53,0,0,1,22.5,22.5Zm30,130a22.54,22.54,0,0,1-15,21.21V194.93a37.55,37.55,0,0,0-37.5-37.5H46.29a22.53,22.53,0,0,1,21.21-15h377a22.53,22.53,0,0,1,22.5,22.5Zm30-30a22.54,22.54,0,0,1-15,21.21V164.93a37.55,37.55,0,0,0-37.5-37.5H76.29a22.53,22.53,0,0,1,21.21-15h377a22.53,22.53,0,0,1,22.5,22.5Zm-91-23.5a7.5,7.5,0,1,0-7.5-7.5A7.5,7.5,0,0,0,406,293.43Zm-360-15a7.5,7.5,0,1,0,7.5,7.5A7.5,7.5,0,0,0,46,278.43Zm180-92.5a100,100,0,1,0,70.71,29.29A99.32,99.32,0,0,0,226,185.93ZM286.1,346a85,85,0,1,1,24.9-60.1A84.41,84.41,0,0,1,286.1,346ZM265.37,240.66a7.5,7.5,0,0,0-7.5-7.5H194.12a7.5,7.5,0,0,0,0,15h22.29a19.47,19.47,0,0,1,17.94,12H194.12a7.5,7.5,0,0,0,0,15h40.23a19.47,19.47,0,0,1-17.94,11.95H194.06l-.43,0-.32,0-.36.06c-.12,0-.25,0-.37.06l-.27.07-.43.11-.23.08-.45.17-.35.17c-.1.05-.21.09-.31.15l-.33.2a2.82,2.82,0,0,0-.29.18l-.27.19-.32.25-.22.2c-.11.1-.23.2-.33.31l-.05,0-.15.18-.3.34-.2.27-.23.32c-.06.1-.12.21-.19.31l-.18.32c-.06.11-.11.22-.16.33l-.15.33-.12.35-.12.35-.09.35c0,.12-.06.24-.08.36l-.06.39c0,.11,0,.22,0,.33s0,.3,0,.45a1.94,1.94,0,0,0,0,.24s0,0,0,.05,0,.31,0,.47,0,.19,0,.28,0,.28.06.42,0,.21.05.31.06.25.1.37.05.23.09.34.09.26.14.39.07.2.11.29a5.11,5.11,0,0,0,.22.48l.09.18.24.39c0,.08.09.16.14.23l.22.3c.08.09.15.2.23.29a2.29,2.29,0,0,0,.21.23c.1.11.19.22.3.32l0,.05,48.2,46.64a7.5,7.5,0,0,0,10.43-10.78l-34.88-33.75h3.75A34.49,34.49,0,0,0,250,275.11h7.85a7.5,7.5,0,0,0,0-15H250a34,34,0,0,0-5.2-12h13.05A7.5,7.5,0,0,0,265.37,240.66Z"
     id="path16190" />
  <path
     style="fill:#f24949;fill-opacity:1;stroke-width:2.16272;stroke-linecap:round;stroke-linejoin:round"
     d="m 240.04813,348.14223 c -0.60209,-0.21537 -1.39363,-0.58306 -1.75897,-0.81708 -1.11674,-0.71533 -49.6586,-47.81184 -50.30358,-48.80577 -2.40831,-3.71129 -1.10794,-8.45006 2.90668,-10.59244 l 0.94066,-0.50197 13.62511,-0.13128 c 12.9917,-0.12518 13.70872,-0.15284 15.42367,-0.5949 5.38903,-1.38913 9.74307,-4.62133 12.43782,-9.23317 0.42051,-0.71967 0.83004,-1.56937 0.91007,-1.88822 l 0.1455,-0.57973 -21.16295,-0.0582 -21.16295,-0.0582 -1.36983,-0.74267 c -1.51152,-0.8195 -2.58363,-1.97929 -3.32783,-3.59999 -0.73065,-1.59118 -0.69946,-4.30275 0.0682,-5.93024 0.71037,-1.506 2.05122,-2.84498 3.62082,-3.61578 l 1.22489,-0.60151 21.03241,-0.0582 c 14.03246,-0.0389 21.03242,-0.13122 21.03242,-0.27753 0,-0.12061 -0.25678,-0.727 -0.57062,-1.34753 -2.49383,-4.93085 -7.05058,-8.5649 -12.60685,-10.05409 l -2.06968,-0.55472 -13.51698,-0.12582 c -13.46602,-0.12535 -13.5207,-0.12767 -14.50654,-0.61347 -1.52116,-0.7496 -2.64493,-1.83295 -3.45917,-3.33474 -0.68896,-1.27071 -0.7417,-1.50674 -0.74069,-3.31458 8.7e-4,-1.53981 0.0993,-2.15957 0.47132,-2.96665 0.65881,-1.42936 2.28174,-3.08339 3.71755,-3.78878 l 1.21683,-0.5978 33.18479,-0.0574 c 36.15384,-0.0626 34.35542,-0.11813 36.31937,1.12166 1.10106,0.69506 2.35458,2.14055 2.89007,3.33266 0.70272,1.56439 0.66924,4.30506 -0.0718,5.87603 -0.71551,1.51688 -2.13933,2.9407 -3.65621,3.65621 l -1.1895,0.56108 -7.51544,0.0621 c -4.13349,0.0341 -7.51544,0.10523 -7.51544,0.158 0,0.0528 0.32758,0.60878 0.72795,1.23558 1.61561,2.52928 3.20608,6.14753 4.04028,9.19144 l 0.48242,1.76032 4.99825,0.0682 c 4.99005,0.0681 5.00013,0.0692 6.14111,0.67033 1.47202,0.77559 2.69094,2.04192 3.44657,3.58061 0.51749,1.05378 0.5999,1.47971 0.59255,3.06234 -0.0106,2.28314 -0.64916,3.7688 -2.27246,5.28721 -1.96454,1.8376 -2.40173,1.94777 -8.04156,2.02653 l -4.91576,0.0686 -0.22837,0.90457 c -3.41535,13.52856 -14.97814,23.8481 -28.76085,25.66846 -1.01107,0.13354 -3.30084,0.30964 -5.08838,0.39134 l -3.25008,0.14856 15.36129,14.87229 c 8.4487,8.17977 16.50985,15.98911 17.91366,17.35411 3.19831,3.10988 3.71206,4.05394 3.70627,6.81062 -0.003,1.55453 -0.0948,2.02615 -0.59312,3.05514 -0.70004,1.44558 -2.35965,3.06981 -3.78024,3.69966 -1.41979,0.62948 -3.72116,0.72748 -5.14272,0.21897 z"
     id="path17404" />
  <path
     style="fill:#f24949;fill-opacity:1;stroke-width:2.16272;stroke-linecap:round;stroke-linejoin:round"
     d="m 220.92145,370.6475 c -12.42473,-0.7329 -26.00949,-4.75916 -36.66462,-10.86668 -7.37706,-4.22853 -13.09089,-8.66408 -19.13754,-14.85615 -19.71056,-20.18458 -28.0008,-48.93308 -22.13189,-76.74788 2.34061,-11.09291 7.58353,-22.86846 14.27748,-32.06707 11.64537,-16.00267 28.40152,-27.42044 47.50971,-32.37347 10.73952,-2.78378 22.00217,-3.45134 32.69164,-1.9377 2.67939,0.37941 4.38534,1.10311 9.40781,3.99102 10.90899,6.27264 20.2858,14.51318 27.76709,24.40228 10.21897,13.50792 16.28276,28.92338 18.34456,46.63581 0.43344,3.72356 0.36131,15.45542 -0.119,19.35631 -2.49948,20.29971 -10.66891,38.09996 -24.20558,52.74121 -7.09929,7.67858 -16.5333,14.79815 -25.70157,19.39621 -2.23156,1.11917 -2.6102,1.23584 -5.24685,1.61671 -5.14687,0.74348 -11.59502,1.0159 -16.79124,0.7094 z m 24.7333,-22.74381 c 1.62829,-0.8016 2.77839,-1.99002 3.56279,-3.68147 0.46524,-1.00321 0.56475,-1.53644 0.56992,-3.05376 0.005,-1.61426 -0.0754,-2.01056 -0.66351,-3.25163 -0.62986,-1.32915 -1.7211,-2.43052 -18.32107,-18.49123 l -17.65131,-17.07789 1.01934,-0.14326 c 0.56064,-0.0788 2.05588,-0.15178 3.32277,-0.1622 7.98946,-0.0657 16.44745,-3.57065 22.54711,-9.34336 4.73995,-4.48587 7.7084,-9.3807 9.64893,-15.9106 l 0.46159,-1.55326 4.79545,-0.0688 c 4.65858,-0.0668 4.83013,-0.085 6.01089,-0.63869 1.70971,-0.80166 2.88217,-1.94543 3.70264,-3.61204 0.63055,-1.28084 0.70448,-1.62655 0.70029,-3.27487 -0.004,-1.53104 -0.10124,-2.05053 -0.57537,-3.07023 -0.76152,-1.63778 -2.11761,-3.06527 -3.60664,-3.79651 -1.20855,-0.5935 -1.26662,-0.59982 -6.13587,-0.66782 l -4.91576,-0.0687 -0.23251,-0.90457 c -0.78486,-3.05352 -2.20461,-6.50018 -3.74302,-9.0867 -0.55415,-0.93169 -1.00754,-1.72985 -1.00754,-1.77369 0,-0.0438 3.33328,-0.10878 7.4073,-0.14433 l 7.4073,-0.0646 1.1895,-0.609 c 1.62568,-0.83233 2.87713,-2.11369 3.60487,-3.69103 0.51763,-1.12193 0.61057,-1.60245 0.61142,-3.16134 8.6e-4,-1.53565 -0.0928,-2.03841 -0.56891,-3.05375 -0.80167,-1.70972 -1.94543,-2.88217 -3.61204,-3.70264 l -1.43201,-0.70498 h -33.74747 -33.74746 l -1.43202,0.70498 c -1.66661,0.82047 -2.81037,1.99292 -3.61204,3.70264 -0.48345,1.03105 -0.56991,1.51073 -0.56991,3.16189 0,1.67771 0.0807,2.11087 0.58491,3.13739 0.7635,1.55458 2.15062,2.94909 3.63238,3.65177 l 1.1895,0.56407 13.51697,0.13097 c 14.45279,0.14003 14.36713,0.13369 17.518,1.29608 3.73264,1.37701 7.12451,4.08585 9.4515,7.54823 0.63755,0.94862 1.57836,2.68131 1.57836,2.90686 0,0.0619 -9.41593,0.13878 -20.92428,0.17082 l -20.92428,0.0582 -1.21545,0.56992 c -1.64635,0.77195 -2.79362,1.85992 -3.67095,3.48121 -0.68882,1.27294 -0.73331,1.48104 -0.72904,3.41025 0.004,1.79272 0.0799,2.20966 0.59626,3.2714 0.69644,1.43216 2.34817,3.05592 3.78271,3.71865 l 1.0202,0.47132 21.05395,0.0582 c 19.85877,0.0549 21.04585,0.0795 20.9114,0.43255 -0.0784,0.20586 -0.47072,0.95823 -0.87184,1.67192 -2.07104,3.68492 -5.72675,6.82174 -9.81938,8.42563 -3.23343,1.26717 -3.33073,1.27477 -17.97343,1.40378 -13.47274,0.1187 -13.52021,0.12068 -14.50654,0.60673 -2.45305,1.20882 -4.0385,3.51385 -4.25275,6.18291 -0.14151,1.76297 0.49696,3.98118 1.50775,5.23831 0.38872,0.48346 11.72744,11.54466 25.19715,24.58046 17.90765,17.33075 24.76033,23.83211 25.49468,24.1876 1.45107,0.70245 2.16014,0.84152 3.91411,0.76764 1.22879,-0.0517 1.85737,-0.21145 2.95046,-0.74957 z"
     id="path17406" />
  <path
     style="fill:#f24949;fill-opacity:1;stroke-width:2.16272;stroke-linecap:round;stroke-linejoin:round"
     d="m 219.51568,370.45881 c -0.2379,-0.035 -1.50309,-0.1769 -2.81153,-0.31525 -10.55568,-1.11619 -22.7453,-5.02231 -32.01181,-10.25808 -6.89193,-3.89408 -12.64178,-8.29602 -18.49608,-14.16013 -6.78307,-6.79441 -11.45769,-13.14916 -15.60218,-21.2098 -6.15989,-11.98042 -9.26188,-24.85628 -9.25984,-38.43613 0.002,-11.40863 1.76783,-20.89111 5.77137,-30.98706 5.70258,-14.3805 14.26048,-25.97775 26.29039,-35.62747 2.55992,-2.05343 8.65236,-6.10358 11.77867,-7.83028 13.51157,-7.46258 29.95143,-11.25559 45.04905,-10.39373 7.19586,0.41078 9.53631,0.89874 13.10777,2.73282 18.84066,9.67538 34.06765,26.07251 42.4911,45.75638 3.5971,8.4057 6.33828,19.27377 7.13464,28.28707 0.39187,4.43526 0.1375,16.09165 -0.43657,20.00513 -1.1558,7.87922 -3.06073,15.13996 -5.77906,22.02722 -7.6902,19.4842 -21.96952,35.85243 -40.40824,46.31956 -5.28439,2.9998 -6.24768,3.30211 -12.39971,3.89147 -2.89662,0.27749 -12.9418,0.41563 -14.41797,0.19828 z m 26.09978,-22.43452 c 1.43389,-0.70154 3.05991,-2.36721 3.69102,-3.78104 0.70145,-1.57141 0.76922,-4.13071 0.15267,-5.76575 -0.6312,-1.67391 -2.10111,-3.17596 -21.12451,-21.58646 -8.11506,-7.8536 -14.7029,-14.36302 -14.63964,-14.46537 0.0633,-0.10235 0.81486,-0.18693 1.67022,-0.18795 5.92144,-0.007 10.94792,-1.10497 15.9312,-3.47983 8.70975,-4.15078 15.02597,-11.40176 18.09235,-20.76989 0.4425,-1.35188 0.83719,-2.49943 0.8771,-2.5501 0.0399,-0.0507 2.28572,-0.1516 4.99071,-0.22427 4.91636,-0.13209 4.91859,-0.13237 6.07292,-0.76378 1.55514,-0.85065 3.13434,-2.62021 3.71705,-4.16513 0.38026,-1.00814 0.45203,-1.57398 0.38006,-2.99642 -0.11631,-2.29877 -0.80026,-3.73014 -2.56154,-5.36077 -1.77474,-1.6431 -2.59148,-1.86041 -7.00094,-1.8628 -1.91134,-10e-4 -3.9673,-0.061 -4.56881,-0.13331 l -1.09365,-0.13144 -0.59766,-1.97533 c -0.76015,-2.51235 -1.98533,-5.38915 -3.23605,-7.5984 l -0.97949,-1.73017 1.87821,-0.1393 c 1.03302,-0.0766 4.34808,-0.14961 7.36681,-0.16221 l 5.4886,-0.0229 1.13938,-0.65189 c 1.54436,-0.88359 2.77981,-2.16697 3.50227,-3.63815 0.53609,-1.09164 0.60152,-1.46015 0.60152,-3.3876 0,-1.98578 -0.0517,-2.25604 -0.63195,-3.30335 -0.77583,-1.40033 -2.29852,-2.85567 -3.76571,-3.59915 l -1.10288,-0.55887 h -33.86089 -33.86089 l -1.10288,0.55887 c -1.46719,0.74348 -2.98988,2.19882 -3.76571,3.59915 -0.58588,1.05747 -0.63195,1.3062 -0.63195,3.41148 0,1.97414 0.0694,2.41215 0.53143,3.35221 0.67241,1.36824 2.23924,2.94563 3.60353,3.62783 l 1.05556,0.52782 13.94952,0.22618 c 15.1696,0.24596 14.81015,0.21461 17.99359,1.56928 3.50931,1.49335 7.17523,4.69119 9.1265,7.96119 0.58266,0.97643 1.00017,1.83453 0.92781,1.90689 -0.0724,0.0724 -9.50272,0.17923 -20.95635,0.2375 l -20.8248,0.10595 -1.24075,0.65225 c -1.54517,0.81227 -3.05313,2.40031 -3.77355,3.97392 -0.49225,1.07519 -0.54112,1.41197 -0.46196,3.1831 0.0681,1.52474 0.20588,2.21457 0.59832,2.99672 0.64244,1.28039 2.3176,2.97696 3.64325,3.68983 l 1.01842,0.54765 20.91701,0.0874 c 11.50435,0.0481 20.98338,0.15377 21.06449,0.23488 0.0811,0.0811 -0.32923,0.9517 -0.91189,1.93463 -1.96756,3.31925 -5.79642,6.61954 -9.35935,8.06728 -3.00752,1.22207 -2.79787,1.2047 -17.86888,1.48008 l -14.05766,0.25686 -1.03904,0.52436 c -1.28369,0.64783 -2.83798,2.2781 -3.46373,3.63305 -0.37954,0.82184 -0.47118,1.42057 -0.47131,3.07933 -1.5e-4,1.89017 0.0581,2.17738 0.70933,3.50032 0.53835,1.09355 1.16891,1.87498 2.61407,3.23952 1.04751,0.98909 6.9082,6.66885 13.02375,12.62169 13.06927,12.72155 22.94339,22.25722 28.6552,27.673 7.78321,7.37983 7.64003,7.28467 10.80767,7.18331 1.61262,-0.0516 2.17128,-0.16674 3.16288,-0.65189 z"
     id="path17408" />
  <path
     style="fill:#f24949;fill-opacity:1;stroke-width:2.16272;stroke-linecap:round;stroke-linejoin:round"
     d="m 219.51568,370.45881 c -0.2379,-0.035 -1.50309,-0.1769 -2.81153,-0.31525 -11.37591,-1.20292 -24.28829,-5.54298 -34.03287,-11.439 -6.42612,-3.88817 -10.96847,-7.46676 -16.47624,-12.98041 -4.45294,-4.45771 -7.6704,-8.33166 -10.69911,-12.88214 -9.40941,-14.13717 -14.16243,-29.83756 -14.16243,-46.78192 0,-11.37003 1.76087,-20.82818 5.76544,-30.96773 6.55168,-16.58885 17.28534,-29.90845 31.97395,-39.67712 10.88423,-7.23855 22.13321,-11.54003 35.12931,-13.43303 9.41436,-1.37129 21.51237,-1.0107 26.48741,0.78948 3.20704,1.16044 10.96796,5.82884 15.91665,9.57429 18.2459,13.80951 30.55777,33.63166 35.01328,56.37149 1.32143,6.74424 1.42082,7.95066 1.41653,17.1936 -0.004,7.83421 -0.05,8.96311 -0.49064,11.95852 -2.89884,19.70414 -10.32198,35.68676 -23.36295,50.30233 -5.85906,6.5665 -14.31232,13.33186 -22.5757,18.06792 -5.30286,3.03927 -6.54621,3.43373 -12.67313,4.02069 -2.89662,0.27749 -12.9418,0.41563 -14.41797,0.19828 z m 26.12076,-22.47659 c 1.46751,-0.7257 3.02285,-2.30348 3.68579,-3.73897 0.70087,-1.51761 0.67741,-4.69888 -0.0458,-6.21073 -0.61981,-1.29569 -5.97916,-6.68179 -23.75615,-23.87474 -6.56674,-6.35099 -11.88794,-11.63072 -11.8249,-11.73274 0.0631,-0.102 0.76581,-0.18701 1.5617,-0.18889 9.96851,-0.0236 18.36335,-3.30735 25.07372,-9.80796 4.56715,-4.42438 7.11836,-8.53798 9.14673,-14.74831 0.38619,-1.18242 0.74062,-2.19405 0.78763,-2.24808 0.047,-0.054 2.24905,-0.15325 4.89344,-0.22049 4.70096,-0.11954 4.83535,-0.13565 6.03724,-0.72368 1.39932,-0.68463 2.89035,-2.2201 3.65423,-3.76315 0.71197,-1.43818 0.73114,-4.63798 0.0369,-6.16315 -0.61768,-1.35702 -2.28563,-3.10729 -3.62662,-3.80559 -1.0518,-0.54772 -1.23861,-0.56913 -5.99348,-0.68699 -2.69931,-0.0669 -4.94496,-0.16775 -4.99032,-0.2241 -0.0454,-0.0564 -0.44312,-1.24298 -0.88392,-2.63696 -0.44679,-1.41293 -1.49716,-3.91166 -2.37358,-5.64657 l -1.57214,-3.11206 2.38966,-0.13771 c 1.31431,-0.0757 4.61533,-0.13815 7.33561,-0.1387 l 4.94595,-0.001 1.24206,-0.75451 c 1.52056,-0.92369 2.91488,-2.40143 3.53754,-3.7492 0.37492,-0.81152 0.46721,-1.41694 0.46734,-3.06579 1.4e-4,-1.80597 -0.0721,-2.20178 -0.59722,-3.27101 -0.70206,-1.42961 -2.25252,-2.95532 -3.80028,-3.73963 l -1.10288,-0.55877 h -33.88698 -33.88698 l -1.33577,0.747 c -1.57124,0.87869 -2.99171,2.34258 -3.64525,3.75671 -0.38042,0.82314 -0.46731,1.41346 -0.46718,3.17393 1.5e-4,1.93231 0.0624,2.28078 0.5846,3.27091 0.7687,1.45764 2.23474,2.89888 3.66679,3.60479 l 1.15524,0.56945 13.84138,0.20374 c 15.02432,0.22115 14.70131,0.19365 17.85896,1.52036 3.45012,1.44958 7.20945,4.73006 9.153,7.98712 0.58266,0.97643 1.00017,1.83453 0.92781,1.90689 -0.0724,0.0724 -9.50272,0.18072 -20.95635,0.2408 l -20.8248,0.10923 -1.05601,0.53039 c -1.41949,0.71294 -2.94941,2.1819 -3.71883,3.57065 -0.58588,1.05747 -0.63195,1.3062 -0.63195,3.41149 0,1.97186 0.0672,2.39689 0.51049,3.2282 0.70596,1.32391 2.41902,3.08015 3.6504,3.7424 l 1.02963,0.55376 20.91701,0.0874 c 11.50435,0.0481 20.97612,0.14651 21.04836,0.21875 0.38506,0.38506 -2.33435,4.31031 -4.18655,6.04295 -2.4595,2.30075 -5.43992,3.98044 -8.60174,4.84774 -1.06548,0.29226 -3.6161,0.39322 -15.3357,0.60701 l -14.05766,0.25645 -1.15822,0.63549 c -1.33759,0.7339 -2.58486,2.06316 -3.30566,3.52294 -0.41936,0.8493 -0.50421,1.36387 -0.50701,3.07459 -0.005,3.30411 0.12107,3.49272 6.62399,9.87875 4.80018,4.7139 12.0156,11.73124 23.75842,23.10617 6.84257,6.6282 15.59757,14.99213 19.28782,18.42625 2.76842,2.57628 3.51722,2.91353 6.23263,2.80716 1.49374,-0.0585 2.07251,-0.18782 3.08783,-0.6899 z"
     id="path17410" />
  <path
     style="fill:#f24949;fill-opacity:1;stroke-width:2.16272;stroke-linecap:round;stroke-linejoin:round"
     d="m 217.13669,370.23547 c -14.93527,-1.70299 -29.55934,-7.37768 -41.18421,-15.98102 -7.39642,-5.47395 -14.96109,-13.29378 -19.95989,-20.63313 -8.1144,-11.91376 -12.84476,-24.97298 -14.34407,-39.60007 -0.44185,-4.31062 -0.33407,-14.60702 0.19356,-18.49122 1.23161,-9.06665 3.20099,-16.04827 6.83266,-24.22242 7.37804,-16.60646 19.77628,-30.19092 35.89056,-39.32446 14.95758,-8.47793 33.02515,-12.22793 50.13136,-10.40495 5.41696,0.57727 6.74581,1.08754 13.79958,5.29886 11.61751,6.93602 21.69302,16.54353 29.24414,27.88577 7.86295,11.81063 12.59049,24.45772 14.91558,39.90211 0.55853,3.71003 0.55705,18.58057 -0.002,22.57673 -2.80408,20.03516 -10.76976,37.11335 -24.06956,51.60443 -6.92456,7.5448 -17.74395,15.64494 -26.30157,19.69114 -1.8924,0.89477 -4.58861,1.43139 -9.0995,1.81107 -3.7443,0.31516 -12.85468,0.2511 -16.04639,-0.11284 z m 28.51583,-22.33068 c 1.57257,-0.77418 2.84011,-2.05434 3.62565,-3.66174 0.4162,-0.85162 0.4973,-1.35918 0.49127,-3.07459 -0.005,-1.41202 -0.11602,-2.29496 -0.35514,-2.8232 -0.62028,-1.37031 -3.591,-4.46198 -13.69978,-14.25753 -9.44583,-9.15313 -14.19887,-13.76832 -19.75986,-19.18677 -1.6565,-1.61404 -2.3782,-2.4531 -2.16522,-2.51731 0.1757,-0.053 2.02259,-0.20295 4.10421,-0.33327 4.09735,-0.25652 5.905,-0.5721 9.0834,-1.5858 5.23453,-1.66947 9.7175,-4.45159 13.84622,-8.59293 4.12506,-4.13767 6.70745,-8.33685 8.54493,-13.89476 0.44492,-1.34577 0.85238,-2.49552 0.90547,-2.555 0.0531,-0.0595 2.25388,-0.15996 4.89066,-0.22331 4.40743,-0.1059 4.87548,-0.15468 5.80248,-0.60487 1.51125,-0.73391 2.8288,-2.0079 3.6569,-3.53598 0.70043,-1.29249 0.74003,-1.47907 0.72631,-3.42161 -0.0119,-1.68253 -0.1048,-2.24179 -0.51311,-3.08837 -0.69599,-1.44304 -2.13991,-2.97729 -3.50547,-3.72477 l -1.1567,-0.63316 -4.90231,-0.11567 c -2.69627,-0.0636 -4.94357,-0.16434 -4.99401,-0.22381 -0.0504,-0.0595 -0.45942,-1.25822 -0.90885,-2.66388 -0.44944,-1.40566 -1.51881,-3.94722 -2.37639,-5.64792 l -1.55923,-3.09218 1.74733,-0.13605 c 0.96104,-0.0748 4.24817,-0.13663 7.30475,-0.13734 l 5.55741,-0.001 1.29008,-0.7561 c 1.47854,-0.86655 2.81901,-2.29128 3.52868,-3.75049 0.7202,-1.48087 0.71852,-4.67999 -0.003,-6.14562 -0.69252,-1.40624 -2.05373,-2.81953 -3.59014,-3.72748 l -1.2849,-0.75932 h -33.95479 -33.95478 l -1.45495,0.86436 c -1.60647,0.9544 -2.74893,2.15437 -3.48551,3.661 -0.40452,0.82742 -0.48275,1.34394 -0.47744,3.15228 0.006,1.90701 0.0734,2.29057 0.57307,3.24407 0.71929,1.37249 2.34509,2.95493 3.73831,3.6386 l 1.08136,0.53064 12.11121,0.14508 c 6.66116,0.0798 13.15084,0.23222 14.42149,0.3387 4.72924,0.39633 9.2238,2.83284 12.5715,6.81505 1.36098,1.61894 2.8867,4.14137 2.64883,4.37925 -0.0799,0.0799 -9.53203,0.1838 -21.00473,0.2309 l -20.85947,0.0856 -1.24204,0.74511 c -1.6097,0.96567 -2.37933,1.72233 -3.30227,3.24659 -0.73449,1.21305 -0.75105,1.29181 -0.73961,3.51893 0.01,1.92403 0.087,2.42248 0.49598,3.20701 0.68426,1.31249 1.88452,2.5812 3.32766,3.51742 l 1.24008,0.80449 20.96419,0.0784 c 11.5303,0.0431 21.03257,0.14676 21.11616,0.23035 0.19888,0.19888 -1.01084,2.33474 -2.19774,3.88026 -2.10766,2.74448 -5.55378,5.24066 -8.92336,6.46356 -2.51642,0.91328 -4.52596,1.04442 -19.16549,1.25074 -11.82706,0.16668 -11.90035,0.17047 -12.84409,0.66395 -1.28677,0.67285 -2.84552,2.28086 -3.48279,3.59285 -0.44234,0.91066 -0.52576,1.40566 -0.5285,3.13593 -0.006,3.64602 -0.9931,2.46542 15.34148,18.34432 6.06642,5.89718 12.44103,12.09745 14.16579,13.77837 9.22581,8.99127 20.48966,19.67334 21.91919,20.78708 1.44662,1.12705 2.33771,1.39277 4.39123,1.30942 1.46118,-0.0593 2.00624,-0.19103 3.17863,-0.76819 z"
     id="path17412" />
  <path
     style="fill:#f24949;fill-opacity:1;stroke-width:2.16272;stroke-linecap:round;stroke-linejoin:round"
     d="m 217.24483,370.25937 c -17.96943,-2.15203 -33.81847,-9.07005 -46.74437,-20.40366 -16.07266,-14.09274 -25.81264,-32.32763 -28.66821,-53.67174 -0.48845,-3.65092 -0.55826,-16.04936 -0.11081,-19.68072 0.72971,-5.92213 1.91123,-11.39335 3.54953,-16.43664 7.07417,-21.77684 22.17001,-39.46852 42.45279,-49.75281 14.31811,-7.25994 30.22289,-10.30458 46.17398,-8.83907 5.22495,0.48005 7.09042,1.08132 12.0526,3.88473 24.0522,13.58842 40.25905,36.06818 45.67816,63.35801 1.1191,5.63563 1.34662,7.90157 1.4658,14.59834 0.19773,11.11005 -0.54171,17.54335 -3.10096,26.97889 -4.06927,15.00275 -11.83548,28.64897 -22.78481,40.03578 -6.40771,6.66373 -15.93189,13.70617 -24.0504,17.78353 -3.62678,1.82148 -6.61007,2.2514 -16.39735,2.36304 -5.06987,0.0578 -7.722,-0.003 -9.51595,-0.21768 z m 28.19324,-22.24647 c 1.59855,-0.74589 2.76634,-1.8553 3.60175,-3.42172 0.68146,-1.27774 0.72969,-1.50397 0.73002,-3.42384 2.2e-4,-1.86396 -0.0591,-2.16612 -0.6367,-3.23947 -0.78734,-1.46301 -5.24087,-5.94705 -22.74682,-22.90268 -7.04554,-6.82406 -12.76601,-12.47868 -12.71214,-12.56583 0.0539,-0.0872 1.48755,-0.22787 3.18599,-0.31272 7.66269,-0.38281 13.84735,-2.40436 19.41656,-6.34662 2.5981,-1.8391 6.61725,-5.84528 8.40218,-8.37505 1.67918,-2.37991 3.63443,-6.3321 4.70778,-9.51595 0.44111,-1.30845 0.84277,-2.42765 0.89259,-2.48713 0.0498,-0.0595 2.24802,-0.16549 4.88489,-0.2356 4.67016,-0.12417 4.82419,-0.14272 5.94865,-0.71612 1.53344,-0.78195 2.96706,-2.25172 3.67119,-3.76375 0.80979,-1.73891 0.81215,-4.36364 0.005,-6.09811 -0.73565,-1.58177 -2.03859,-3.00834 -3.45653,-3.78451 -1.15645,-0.63302 -1.16486,-0.6341 -5.48366,-0.70213 -5.95176,-0.0938 -5.5809,0.006 -6.06321,-1.62661 -0.65131,-2.20429 -2.20801,-5.95041 -3.3517,-8.06566 l -1.06967,-1.97838 1.65237,-0.13967 c 0.9088,-0.0768 4.17129,-0.13968 7.24999,-0.13968 5.47787,0 5.61944,-0.0111 6.61772,-0.51815 1.55383,-0.78926 2.92083,-2.1178 3.71795,-3.61335 0.67,-1.25705 0.7202,-1.49416 0.72446,-3.42161 0.004,-1.8357 -0.0626,-2.20212 -0.58668,-3.22533 -0.7376,-1.44009 -2.04707,-2.76563 -3.62258,-3.66705 l -1.21215,-0.69352 h -33.83584 -33.83585 l -1.28196,0.69365 c -1.61893,0.87597 -3.09475,2.34652 -3.75332,3.73992 -0.43366,0.9175 -0.51052,1.41333 -0.50727,3.27229 0.003,1.98651 0.0603,2.29474 0.60927,3.30335 0.73796,1.35586 2.27381,2.8297 3.69233,3.54324 l 1.05601,0.53119 12.32748,0.15209 c 6.78011,0.0837 13.275,0.23967 14.43307,0.3467 4.56763,0.42215 9.17735,2.97229 12.39737,6.85835 1.32438,1.59832 2.82427,4.09908 2.59564,4.32771 -0.0796,0.0796 -9.45806,0.17877 -20.84101,0.22038 l -20.69628,0.0756 -1.17856,0.57946 c -1.49979,0.7374 -3.23603,2.43268 -3.91591,3.82354 -0.72309,1.47924 -0.73755,4.64286 -0.0285,6.23651 0.55981,1.25826 2.60466,3.31372 3.94311,3.96357 l 0.96361,0.46786 20.79899,0.0737 c 11.43944,0.0405 20.86826,0.14296 20.95292,0.22762 0.29502,0.29502 -1.73863,3.45402 -3.31802,5.15408 -2.55919,2.75471 -6.38038,5.02143 -9.80849,5.81837 -1.22587,0.28498 -5.48757,0.43275 -18.46064,0.64014 -10.3521,0.16548 -10.61905,0.18051 -11.53705,0.64955 -1.33904,0.68416 -2.78779,2.21954 -3.44138,3.64716 -0.47237,1.0318 -0.562,1.53797 -0.56282,3.17844 -0.001,2.49556 0.41892,3.4128 2.64977,5.7845 2.4339,2.58756 35.04902,34.22113 43.92646,42.60448 4.56665,4.31249 5.51427,5.08616 6.70442,5.47366 1.40628,0.45788 4.05201,0.26159 5.48472,-0.40691 z"
     id="path17414" />
  <path
     style="fill:#f24949;fill-opacity:1;stroke-width:2.16272;stroke-linecap:round;stroke-linejoin:round"
     d="m 239.84521,347.95028 c -1.33083,-0.5514 -1.98608,-1.10794 -7.33531,-6.23022 -14.94058,-14.3067 -43.62611,-42.28377 -44.32329,-43.22862 -1.28056,-1.73548 -1.58986,-4.32998 -0.77564,-6.5062 0.54614,-1.45967 1.97742,-3.0912 3.37339,-3.84535 l 1.04856,-0.56647 13.94952,-0.21081 13.94951,-0.21082 1.90067,-0.56775 c 3.67895,-1.09894 6.65392,-2.92131 9.1498,-5.60487 1.46838,-1.57879 3.03397,-3.93705 3.48758,-5.25335 l 0.23064,-0.6693 -4.35654,-0.14115 c -2.3961,-0.0776 -11.95436,-0.14141 -21.24059,-0.14172 l -16.88405,-5.7e-4 -1.3909,-0.83505 c -2.60045,-1.56122 -3.78865,-3.7722 -3.61737,-6.73108 0.15572,-2.68991 1.57243,-4.78343 4.11268,-6.07746 l 1.23739,-0.63034 14.4423,-0.0308 c 7.94326,-0.0169 17.36196,-0.0899 20.93044,-0.1622 7.55666,-0.15309 7.09982,0.0681 5.52916,-2.67706 -2.46306,-4.30489 -6.86029,-7.58535 -12.22423,-9.11965 -1.8919,-0.54116 -2.10127,-0.55455 -8.97527,-0.57436 -3.871,-0.0112 -10.0065,-0.0858 -13.63446,-0.16581 l -6.59628,-0.14553 -1.15896,-0.63832 c -1.33298,-0.73417 -2.39311,-1.88484 -3.1666,-3.43704 -0.43446,-0.87184 -0.54055,-1.40841 -0.54055,-2.73392 0,-0.91861 0.14774,-2.08278 0.3335,-2.62797 0.46229,-1.35674 2.17089,-3.19973 3.74345,-4.0379 l 1.30183,-0.69387 33.80644,0.0593 c 32.60437,0.0572 33.83558,0.0738 34.62597,0.46644 1.25659,0.6243 2.80574,2.12952 3.49497,3.39587 0.80031,1.47041 0.98729,3.658 0.46597,5.4513 -0.45278,1.5575 -2.19201,3.50231 -3.84449,4.2989 -1.14961,0.55418 -1.1693,0.55575 -8.58668,0.68323 -4.08894,0.0703 -7.49153,0.18488 -7.56132,0.25467 -0.0698,0.0698 -0.0238,0.29277 0.10213,0.49552 2.03608,3.27748 3.39903,6.26017 4.41798,9.66832 l 0.58193,1.94644 1.48651,0.13535 c 0.81758,0.0744 3.04367,0.14956 4.94686,0.16695 2.91536,0.0266 3.60563,0.0976 4.38285,0.45033 1.43797,0.65269 3.15146,2.41184 3.83686,3.9391 0.53709,1.19681 0.58498,1.5006 0.48618,3.08431 -0.13576,2.176 -0.74743,3.4866 -2.30887,4.94715 -1.71536,1.60452 -2.09694,1.70562 -7.15397,1.89543 -2.43847,0.0915 -4.74987,0.17307 -5.13646,0.1812 -0.51831,0.0109 -0.70372,0.11418 -0.70606,0.39327 -0.006,0.71881 -1.69873,5.41426 -2.60238,7.21894 -1.74809,3.4911 -3.51481,5.94072 -6.43468,8.92189 -4.39726,4.48959 -9.86529,7.65006 -15.93913,9.21265 -2.4251,0.6239 -5.11711,0.96082 -9.71035,1.2153 l -2.57338,0.14258 2.89779,2.84325 c 1.59379,1.56379 5.91478,5.76364 9.60221,9.33301 25.07511,24.27224 23.71392,22.88917 24.22683,24.61632 0.176,0.59266 0.32,1.72562 0.32,2.51767 0,1.17344 -0.12245,1.68516 -0.66128,2.76345 -0.71486,1.43056 -2.2492,2.97426 -3.60158,3.62355 -1.15852,0.55622 -4.20028,0.65485 -5.36123,0.17384 z"
     id="path17416" />
  <path
     style="fill:#f24949;fill-opacity:1;stroke-width:2.16272;stroke-linecap:round;stroke-linejoin:round"
     d="m 244.59111,367.6466 c 9.5711,-5.25544 16.78067,-10.81739 24.1872,-18.65965 6.21663,-6.58236 12.31316,-15.66116 16.20706,-24.13519 8.10005,-17.62754 10.50885,-36.96342 6.96609,-55.91802 -5.19977,-27.81996 -22.99833,-51.83241 -48.1831,-65.00492 -1.68193,-0.87972 -2.98662,-1.60111 -2.8993,-1.6031 0.55245,-0.0126 5.99348,1.26839 8.76041,2.06251 31.09003,8.92298 54.69594,35.40412 60.05287,67.36738 0.92232,5.50324 1.09266,7.78058 1.08305,14.47986 -0.01,6.70243 -0.34943,10.50898 -1.41904,15.89597 -2.71777,13.68772 -8.44332,25.9965 -17.15244,36.87431 -2.52304,3.1513 -7.51368,8.3282 -10.61661,11.01284 -10.16011,8.79047 -22.39086,15.11959 -35.29811,18.26594 -5.04523,1.22985 -5.07155,1.21991 -1.68808,-0.63793 z"
     id="path17418" />
  <circle
     style="fill:#f24949;fill-opacity:1;stroke-width:10;stroke-linecap:round;stroke-linejoin:round"
     id="path18872"
     cx="230.61411"
     cy="286.89127"
     r="78.298683" />
</svg>
