<?xml version="1.0" encoding="UTF-8" standalone="no"?>
<svg
   viewBox="0 0 64 64"
   version="1.1"
   id="svg6601"
   sodipodi:docname="engine.svg"
   inkscape:version="1.2 (dc2aedaf03, 2022-05-15)"
   xml:space="preserve"
   xmlns:inkscape="http://www.inkscape.org/namespaces/inkscape"
   xmlns:sodipodi="http://sodipodi.sourceforge.net/DTD/sodipodi-0.dtd"
   xmlns="http://www.w3.org/2000/svg"
   xmlns:svg="http://www.w3.org/2000/svg"><defs
     id="defs6605" /><sodipodi:namedview
     id="namedview6603"
     pagecolor="#ffffff"
     bordercolor="#000000"
     borderopacity="0.25"
     inkscape:showpageshadow="2"
     inkscape:pageopacity="0.0"
     inkscape:pagecheckerboard="0"
     inkscape:deskcolor="#d1d1d1"
     showgrid="false"
     inkscape:zoom="9.2476309"
     inkscape:cx="36.279562"
     inkscape:cy="27.899037"
     inkscape:window-width="1920"
     inkscape:window-height="1017"
     inkscape:window-x="-8"
     inkscape:window-y="-8"
     inkscape:window-maximized="1"
     inkscape:current-layer="svg6601" /><rect
     style="fill:#f24949;fill-opacity:1"
     id="rect10840"
     width="11.775389"
     height="17.81601"
     x="26.532856"
     y="28.215054" /><path
     d="m 60,34 h -4 c -0.552285,0 -1,0.447715 -1,1 v 3 H 52 V 28 c 0,-0.552285 -0.447715,-1 -1,-1 h -3.49 l -4.7,-6.58 C 42.623324,20.157804 42.321857,20.001488 42,20 h -7 v -3 h 3 c 0.552285,0 1,-0.447715 1,-1 v -4 c 0,-0.552285 -0.447715,-1 -1,-1 H 26 c -0.552285,0 -1,0.447715 -1,1 v 4 c 0,0.552285 0.447715,1 1,1 h 3 v 3 h -5 c -0.321857,0.0015 -0.623324,0.157804 -0.81,0.42 L 18.49,27 H 13 c -0.552285,0 -1,0.447715 -1,1 V 38 H 9 V 35 C 9,34.447715 8.5522847,34 8,34 H 4 c -0.5522847,0 -1,0.447715 -1,1 v 12 c 0,0.552285 0.4477153,1 1,1 h 4 c 0.5522847,0 1,-0.447715 1,-1 v -3 h 3 v 5 c 0,0.552285 0.447715,1 1,1 h 11.59 l 2.7,2.71 c 0.188719,0.187187 0.444197,0.291537 0.71,0.29 h 20 c 0.265803,0.0015 0.521281,-0.102813 0.71,-0.29 l 3,-3 C 51.897187,49.521281 52.001537,49.265803 52,49 v -5 h 3 v 3 c 0,0.552285 0.447715,1 1,1 h 4 c 0.552285,0 1,-0.447715 1,-1 V 35 c 0,-0.552285 -0.447715,-1 -1,-1 z M 36.305245,38.022318 30.77,43.64 c -0.299187,0.999984 -0.542521,0.883513 -1.41,0.373306 -0.452955,-0.0017 -1.019422,-1.228269 -0.665245,-1.653306 l 3.563537,-3.671828 -3.64061,-0.305854 c -0.848486,0.0014 -1.618887,-1.676217 -1.075854,-2.328172 l 4.847073,-6.305854 C 33.242234,28.721625 35.623333,30.613334 34.77,31.64 L 31.13,36 H 35 c 0.848486,-0.0014 1.848278,1.370362 1.305245,2.022318 z"
     id="path6599"
     style="fill:#d9d9d9;fill-opacity:1;stroke:#000000;stroke-linecap:round;stroke-linejoin:round;stroke-opacity:1"
     sodipodi:nodetypes="sssccsscccccsssssssscccccssccssssssssccsscccccccccsssssscccccccccccc" /><rect
     style="fill:#d9d9d9;fill-opacity:1;stroke:none;stroke-linecap:round;stroke-linejoin:round;stroke-opacity:1"
     id="rect22042"
     width="14.490198"
     height="19.031902"
     x="25.195642"
     y="28.115309" /><polygon
     fill="#fcd462"
     points="70.89,45.77 93.46,3.5 60.48,3.5 29.31,63.59 70.05,63.59 41.07,131.5 105.69,45.77 "
     id="polygon21463"
     transform="matrix(0.15616616,0,0,0.15616616,23.188957,25.892352)"
     style="fill:#f24949;fill-opacity:1" /></svg>
