<?xml version="1.0" encoding="UTF-8" standalone="no"?>
<svg
   width="64"
   height="64"
   enable-background="new 0 0 64 64"
   viewBox="0 0 64 64"
   version="1.1"
   id="svg465"
   sodipodi:docname="mileage.svg"
   inkscape:version="1.2 (dc2aedaf03, 2022-05-15)"
   xmlns:inkscape="http://www.inkscape.org/namespaces/inkscape"
   xmlns:sodipodi="http://sodipodi.sourceforge.net/DTD/sodipodi-0.dtd"
   xmlns="http://www.w3.org/2000/svg"
   xmlns:svg="http://www.w3.org/2000/svg">
  <defs
     id="defs469" />
  <sodipodi:namedview
     id="namedview467"
     pagecolor="#ffffff"
     bordercolor="#000000"
     borderopacity="0.25"
     inkscape:showpageshadow="2"
     inkscape:pageopacity="0.0"
     inkscape:pagecheckerboard="0"
     inkscape:deskcolor="#d1d1d1"
     showgrid="false"
     inkscape:zoom="9.2476309"
     inkscape:cx="7.0288273"
     inkscape:cy="26.601408"
     inkscape:window-width="1920"
     inkscape:window-height="1017"
     inkscape:window-x="-8"
     inkscape:window-y="-8"
     inkscape:window-maximized="1"
     inkscape:current-layer="svg465" />
  <path
     d="M28.371 31.879c0 2.19 1.777 3.966 3.966 3.966 1.538 0 2.856-.884 3.514-2.163l.011.01 7.24-13.062-12.71 7.794.012.012C29.197 29.117 28.371 30.395 28.371 31.879zM48.315 12.981C44.251 9.429 39 7.161 33 6.822v6.027c5 .318 7.946 1.906 10.904 4.384L48.315 12.981zM51.146 30h6.02c-.404-6-2.751-10.93-6.395-14.97l-4.259 4.233C49.078 22.203 50.766 26 51.146 30z"
     id="path461"
     style="stroke:#000000;stroke-opacity:1;stroke-width:1;stroke-dasharray:none;fill:#f24949;fill-opacity:1" />
  <path
     d="M51.174,33c-0.637,10-8.922,17.931-19.042,17.931c-10.535,0-19.421-8.544-19.421-19.078C12.711,21.825,21,13.62,30,12.85   V6.823C17,7.602,6.711,18.54,6.711,31.879c0,13.843,11.42,25.052,25.263,25.052C45.406,56.931,56.564,46,57.205,33H51.174z"
     id="path463"
     style="stroke:#000000;stroke-opacity:1;fill:#d9d9d9;fill-opacity:1" />
  <path
     style="fill:#d9d9d9;fill-opacity:1;stroke:#000000;stroke-width:0.0764636;stroke-dasharray:none;stroke-opacity:1"
     d="M 30.470729,56.847204 C 27.84781,56.687948 25.176561,56.09428 22.671446,55.113864 20.602024,54.303963 17.961277,52.76835 16.131969,51.311111 15.149729,50.528651 13.010999,48.389658 12.230108,47.408769 9.1325799,43.517917 7.2844511,38.910495 6.8351495,33.959031 6.7243612,32.738104 6.7890813,29.769029 6.951868,28.604494 c 0.8071869,-5.77441 3.349401,-10.837533 7.432751,-14.803211 2.751188,-2.671905 5.80759,-4.5317325 9.418999,-5.7314816 1.882999,-0.6255524 3.833688,-1.0306446 5.653969,-1.1741382 l 0.477897,-0.037673 v 2.9713632 2.9713636 l -0.248507,0.03876 c -1.474695,0.230043 -1.896306,0.311199 -2.643845,0.508912 -6.186414,1.636214 -11.490616,6.712162 -13.471264,12.89156 -0.614856,1.918283 -0.864737,3.52269 -0.867334,5.568887 -0.0026,2.038814 0.213875,3.560221 0.766974,5.390681 2.518705,8.335544 10.588681,14.070651 19.331359,13.738258 2.873062,-0.109233 5.340505,-0.741493 7.913979,-2.027887 3.68826,-1.843638 6.919993,-5.164622 8.679738,-8.919451 0.939699,-2.005066 1.547466,-4.212879 1.762847,-6.403823 l 0.05074,-0.516129 h 2.983044 2.983045 l -0.05212,0.630824 c -0.385149,4.661921 -2.086417,9.086989 -4.975994,12.942773 -3.861646,5.15289 -9.512483,8.687416 -15.751493,9.852356 -1.669702,0.311765 -4.150118,0.458583 -5.925926,0.350761 z"
     id="path7998" />
  <path
     style="fill:#d9d9d9;fill-opacity:1;stroke:#000000;stroke-width:0.0764636;stroke-dasharray:none;stroke-opacity:1"
     d="M 30.853047,56.879864 C 26.93852,56.620637 23.854368,55.80758 20.60693,54.178739 18.107697,52.925182 16.182922,51.523689 14.100226,49.440992 12.651557,47.992324 11.869387,47.040365 10.820573,45.449413 9.2731806,43.102166 8.1117013,40.442381 7.4675604,37.771022 6.9000207,35.417341 6.72692,33.727287 6.7903258,31.158901 6.8567174,28.469567 7.2112036,26.403306 8.0299797,23.933094 9.51312,19.458526 12.161939,15.563063 15.789725,12.521289 c 1.187491,-0.995671 3.000868,-2.208779 4.359707,-2.9165468 2.885563,-1.5029799 5.994259,-2.4096886 9.308155,-2.714895 l 0.477897,-0.044014 v 2.9774416 2.9774422 l -0.248507,0.03907 c -0.136678,0.02149 -0.506571,0.07754 -0.821983,0.124562 -1.372686,0.204641 -3.236597,0.762661 -4.587814,1.373505 -6.234426,2.818397 -10.657222,8.756297 -11.475387,15.406474 -0.117946,0.958682 -0.117873,3.371457 1.3e-4,4.281959 0.375278,2.895641 1.371569,5.629437 2.903614,7.967442 2.654647,4.05117 6.662906,6.993634 11.237441,8.249407 6.582485,1.806982 13.422457,0.105461 18.315368,-4.556156 3.295759,-3.139964 5.325346,-7.224892 5.860072,-11.794504 l 0.09619,-0.821983 h 2.980827 2.980827 l -0.05212,0.630824 c -0.145319,1.758964 -0.568731,3.884792 -1.110811,5.577054 -0.816618,2.549314 -2.44474,5.590489 -4.167749,7.784953 -4.245088,5.406644 -10.487722,8.93638 -17.092895,9.664736 -1.073623,0.118389 -3.171211,0.200045 -3.899641,0.151807 z"
     id="path8000" />
</svg>
